<?xml version="1.0" encoding="utf-8" standalone="no"?>
<!DOCTYPE svg PUBLIC "-//W3C//DTD SVG 1.1//EN"
  "http://www.w3.org/Graphics/SVG/1.1/DTD/svg11.dtd">
<!-- Created with matplotlib (http://matplotlib.org/) -->
<svg height="270pt" version="1.1" viewBox="0 0 587 270" width="587pt" xmlns="http://www.w3.org/2000/svg" xmlns:xlink="http://www.w3.org/1999/xlink">
 <defs>
  <style type="text/css">
*{stroke-linecap:butt;stroke-linejoin:round;}
  </style>
 </defs>
 <g id="figure_1">
  <g id="patch_1">
   <path d="
M0 270.795
L587.961 270.795
L587.961 0
L0 0
z
" style="fill:#ffffff;"/>
  </g>
  <g id="axes_1">
   <g id="patch_2">
    <path d="
M37.45 235.239
L372.25 235.239
L372.25 12.0391
L37.45 12.0391
z
" style="fill:#ffffff;"/>
   </g>
   <g id="patch_3">
    <path clip-path="url(#pbcd484661a)" d="
M37.45 235.239
L39.5167 235.239
L39.5167 56.6791
L37.45 56.6791
z
" style="fill:#8000ff;opacity:0.5;stroke:#000000;stroke-linejoin:miter;"/>
   </g>
   <g id="patch_4">
    <path clip-path="url(#pbcd484661a)" d="
M93.25 235.239
L95.3167 235.239
L95.3167 185.019
L93.25 185.019
z
" style="fill:#8000ff;opacity:0.5;stroke:#000000;stroke-linejoin:miter;"/>
   </g>
   <g id="patch_5">
    <path clip-path="url(#pbcd484661a)" d="
M149.05 235.239
L151.117 235.239
L151.117 198.969
L149.05 198.969
z
" style="fill:#8000ff;opacity:0.5;stroke:#000000;stroke-linejoin:miter;"/>
   </g>
   <g id="patch_6">
    <path clip-path="url(#pbcd484661a)" d="
M204.85 235.239
L206.917 235.239
L206.917 226.869
L204.85 226.869
z
" style="fill:#8000ff;opacity:0.5;stroke:#000000;stroke-linejoin:miter;"/>
   </g>
   <g id="patch_7">
    <path clip-path="url(#pbcd484661a)" d="
M260.65 235.239
L262.717 235.239
L262.717 235.239
L260.65 235.239
z
" style="fill:#8000ff;opacity:0.5;stroke:#000000;stroke-linejoin:miter;"/>
   </g>
   <g id="patch_8">
    <path clip-path="url(#pbcd484661a)" d="
M316.45 235.239
L318.517 235.239
L318.517 235.239
L316.45 235.239
z
" style="fill:#8000ff;opacity:0.5;stroke:#000000;stroke-linejoin:miter;"/>
   </g>
   <g id="patch_9">
    <path clip-path="url(#pbcd484661a)" d="
M39.5167 235.239
L41.5833 235.239
L41.5833 106.899
L39.5167 106.899
z
" style="fill:#6e1cff;opacity:0.5;stroke:#000000;stroke-linejoin:miter;"/>
   </g>
   <g id="patch_10">
    <path clip-path="url(#pbcd484661a)" d="
M95.3167 235.239
L97.3833 235.239
L97.3833 204.549
L95.3167 204.549
z
" style="fill:#6e1cff;opacity:0.5;stroke:#000000;stroke-linejoin:miter;"/>
   </g>
   <g id="patch_11">
    <path clip-path="url(#pbcd484661a)" d="
M151.117 235.239
L153.183 235.239
L153.183 171.069
L151.117 171.069
z
" style="fill:#6e1cff;opacity:0.5;stroke:#000000;stroke-linejoin:miter;"/>
   </g>
   <g id="patch_12">
    <path clip-path="url(#pbcd484661a)" d="
M206.917 235.239
L208.983 235.239
L208.983 185.019
L206.917 185.019
z
" style="fill:#6e1cff;opacity:0.5;stroke:#000000;stroke-linejoin:miter;"/>
   </g>
   <g id="patch_13">
    <path clip-path="url(#pbcd484661a)" d="
M262.717 235.239
L264.783 235.239
L264.783 232.449
L262.717 232.449
z
" style="fill:#6e1cff;opacity:0.5;stroke:#000000;stroke-linejoin:miter;"/>
   </g>
   <g id="patch_14">
    <path clip-path="url(#pbcd484661a)" d="
M318.517 235.239
L320.583 235.239
L320.583 235.239
L318.517 235.239
z
" style="fill:#6e1cff;opacity:0.5;stroke:#000000;stroke-linejoin:miter;"/>
   </g>
   <g id="patch_15">
    <path clip-path="url(#pbcd484661a)" d="
M41.5833 235.239
L43.65 235.239
L43.65 185.019
L41.5833 185.019
z
" style="fill:#5a3bfd;opacity:0.5;stroke:#000000;stroke-linejoin:miter;"/>
   </g>
   <g id="patch_16">
    <path clip-path="url(#pbcd484661a)" d="
M97.3833 235.239
L99.45 235.239
L99.45 201.759
L97.3833 201.759
z
" style="fill:#5a3bfd;opacity:0.5;stroke:#000000;stroke-linejoin:miter;"/>
   </g>
   <g id="patch_17">
    <path clip-path="url(#pbcd484661a)" d="
M153.183 235.239
L155.25 235.239
L155.25 157.119
L153.183 157.119
z
" style="fill:#5a3bfd;opacity:0.5;stroke:#000000;stroke-linejoin:miter;"/>
   </g>
   <g id="patch_18">
    <path clip-path="url(#pbcd484661a)" d="
M208.983 235.239
L211.05 235.239
L211.05 162.699
L208.983 162.699
z
" style="fill:#5a3bfd;opacity:0.5;stroke:#000000;stroke-linejoin:miter;"/>
   </g>
   <g id="patch_19">
    <path clip-path="url(#pbcd484661a)" d="
M264.783 235.239
L266.85 235.239
L266.85 193.389
L264.783 193.389
z
" style="fill:#5a3bfd;opacity:0.5;stroke:#000000;stroke-linejoin:miter;"/>
   </g>
   <g id="patch_20">
    <path clip-path="url(#pbcd484661a)" d="
M320.583 235.239
L322.65 235.239
L322.65 229.659
L320.583 229.659
z
" style="fill:#5a3bfd;opacity:0.5;stroke:#000000;stroke-linejoin:miter;"/>
   </g>
   <g id="patch_21">
    <path clip-path="url(#pbcd484661a)" d="
M43.65 235.239
L45.7167 235.239
L45.7167 196.179
L43.65 196.179
z
" style="fill:#4659fb;opacity:0.5;stroke:#000000;stroke-linejoin:miter;"/>
   </g>
   <g id="patch_22">
    <path clip-path="url(#pbcd484661a)" d="
M99.45 235.239
L101.517 235.239
L101.517 176.649
L99.45 176.649
z
" style="fill:#4659fb;opacity:0.5;stroke:#000000;stroke-linejoin:miter;"/>
   </g>
   <g id="patch_23">
    <path clip-path="url(#pbcd484661a)" d="
M155.25 235.239
L157.317 235.239
L157.317 168.279
L155.25 168.279
z
" style="fill:#4659fb;opacity:0.5;stroke:#000000;stroke-linejoin:miter;"/>
   </g>
   <g id="patch_24">
    <path clip-path="url(#pbcd484661a)" d="
M211.05 235.239
L213.117 235.239
L213.117 173.859
L211.05 173.859
z
" style="fill:#4659fb;opacity:0.5;stroke:#000000;stroke-linejoin:miter;"/>
   </g>
   <g id="patch_25">
    <path clip-path="url(#pbcd484661a)" d="
M266.85 235.239
L268.917 235.239
L268.917 196.179
L266.85 196.179
z
" style="fill:#4659fb;opacity:0.5;stroke:#000000;stroke-linejoin:miter;"/>
   </g>
   <g id="patch_26">
    <path clip-path="url(#pbcd484661a)" d="
M322.65 235.239
L324.717 235.239
L324.717 221.289
L322.65 221.289
z
" style="fill:#4659fb;opacity:0.5;stroke:#000000;stroke-linejoin:miter;"/>
   </g>
   <g id="patch_27">
    <path clip-path="url(#pbcd484661a)" d="
M45.7167 235.239
L47.7833 235.239
L47.7833 95.7391
L45.7167 95.7391
z
" style="fill:#3176f8;opacity:0.5;stroke:#000000;stroke-linejoin:miter;"/>
   </g>
   <g id="patch_28">
    <path clip-path="url(#pbcd484661a)" d="
M101.517 235.239
L103.583 235.239
L103.583 179.439
L101.517 179.439
z
" style="fill:#3176f8;opacity:0.5;stroke:#000000;stroke-linejoin:miter;"/>
   </g>
   <g id="patch_29">
    <path clip-path="url(#pbcd484661a)" d="
M157.317 235.239
L159.383 235.239
L159.383 201.759
L157.317 201.759
z
" style="fill:#3176f8;opacity:0.5;stroke:#000000;stroke-linejoin:miter;"/>
   </g>
   <g id="patch_30">
    <path clip-path="url(#pbcd484661a)" d="
M213.117 235.239
L215.183 235.239
L215.183 201.759
L213.117 201.759
z
" style="fill:#3176f8;opacity:0.5;stroke:#000000;stroke-linejoin:miter;"/>
   </g>
   <g id="patch_31">
    <path clip-path="url(#pbcd484661a)" d="
M268.917 235.239
L270.983 235.239
L270.983 224.079
L268.917 224.079
z
" style="fill:#3176f8;opacity:0.5;stroke:#000000;stroke-linejoin:miter;"/>
   </g>
   <g id="patch_32">
    <path clip-path="url(#pbcd484661a)" d="
M324.717 235.239
L326.783 235.239
L326.783 229.659
L324.717 229.659
z
" style="fill:#3176f8;opacity:0.5;stroke:#000000;stroke-linejoin:miter;"/>
   </g>
   <g id="patch_33">
    <path clip-path="url(#pbcd484661a)" d="
M47.7833 235.239
L49.85 235.239
L49.85 123.639
L47.7833 123.639
z
" style="fill:#1e91f3;opacity:0.5;stroke:#000000;stroke-linejoin:miter;"/>
   </g>
   <g id="patch_34">
    <path clip-path="url(#pbcd484661a)" d="
M103.583 235.239
L105.65 235.239
L105.65 179.439
L103.583 179.439
z
" style="fill:#1e91f3;opacity:0.5;stroke:#000000;stroke-linejoin:miter;"/>
   </g>
   <g id="patch_35">
    <path clip-path="url(#pbcd484661a)" d="
M159.383 235.239
L161.45 235.239
L161.45 215.709
L159.383 215.709
z
" style="fill:#1e91f3;opacity:0.5;stroke:#000000;stroke-linejoin:miter;"/>
   </g>
   <g id="patch_36">
    <path clip-path="url(#pbcd484661a)" d="
M215.183 235.239
L217.25 235.239
L217.25 201.759
L215.183 201.759
z
" style="fill:#1e91f3;opacity:0.5;stroke:#000000;stroke-linejoin:miter;"/>
   </g>
   <g id="patch_37">
    <path clip-path="url(#pbcd484661a)" d="
M270.983 235.239
L273.05 235.239
L273.05 204.549
L270.983 204.549
z
" style="fill:#1e91f3;opacity:0.5;stroke:#000000;stroke-linejoin:miter;"/>
   </g>
   <g id="patch_38">
    <path clip-path="url(#pbcd484661a)" d="
M326.783 235.239
L328.85 235.239
L328.85 210.129
L326.783 210.129
z
" style="fill:#1e91f3;opacity:0.5;stroke:#000000;stroke-linejoin:miter;"/>
   </g>
   <g id="patch_39">
    <path clip-path="url(#pbcd484661a)" d="
M49.85 235.239
L51.9167 235.239
L51.9167 98.5291
L49.85 98.5291
z
" style="fill:#09a9ee;opacity:0.5;stroke:#000000;stroke-linejoin:miter;"/>
   </g>
   <g id="patch_40">
    <path clip-path="url(#pbcd484661a)" d="
M105.65 235.239
L107.717 235.239
L107.717 187.809
L105.65 187.809
z
" style="fill:#09a9ee;opacity:0.5;stroke:#000000;stroke-linejoin:miter;"/>
   </g>
   <g id="patch_41">
    <path clip-path="url(#pbcd484661a)" d="
M161.45 235.239
L163.517 235.239
L163.517 196.179
L161.45 196.179
z
" style="fill:#09a9ee;opacity:0.5;stroke:#000000;stroke-linejoin:miter;"/>
   </g>
   <g id="patch_42">
    <path clip-path="url(#pbcd484661a)" d="
M217.25 235.239
L219.317 235.239
L219.317 193.389
L217.25 193.389
z
" style="fill:#09a9ee;opacity:0.5;stroke:#000000;stroke-linejoin:miter;"/>
   </g>
   <g id="patch_43">
    <path clip-path="url(#pbcd484661a)" d="
M273.05 235.239
L275.117 235.239
L275.117 226.869
L273.05 226.869
z
" style="fill:#09a9ee;opacity:0.5;stroke:#000000;stroke-linejoin:miter;"/>
   </g>
   <g id="patch_44">
    <path clip-path="url(#pbcd484661a)" d="
M328.85 235.239
L330.917 235.239
L330.917 229.659
L328.85 229.659
z
" style="fill:#09a9ee;opacity:0.5;stroke:#000000;stroke-linejoin:miter;"/>
   </g>
   <g id="patch_45">
    <path clip-path="url(#pbcd484661a)" d="
M51.9167 235.239
L53.9833 235.239
L53.9833 78.9991
L51.9167 78.9991
z
" style="fill:#08bee9;opacity:0.5;stroke:#000000;stroke-linejoin:miter;"/>
   </g>
   <g id="patch_46">
    <path clip-path="url(#pbcd484661a)" d="
M107.717 235.239
L109.783 235.239
L109.783 204.549
L107.717 204.549
z
" style="fill:#08bee9;opacity:0.5;stroke:#000000;stroke-linejoin:miter;"/>
   </g>
   <g id="patch_47">
    <path clip-path="url(#pbcd484661a)" d="
M163.517 235.239
L165.583 235.239
L165.583 198.969
L163.517 198.969
z
" style="fill:#08bee9;opacity:0.5;stroke:#000000;stroke-linejoin:miter;"/>
   </g>
   <g id="patch_48">
    <path clip-path="url(#pbcd484661a)" d="
M219.317 235.239
L221.383 235.239
L221.383 193.389
L219.317 193.389
z
" style="fill:#08bee9;opacity:0.5;stroke:#000000;stroke-linejoin:miter;"/>
   </g>
   <g id="patch_49">
    <path clip-path="url(#pbcd484661a)" d="
M275.117 235.239
L277.183 235.239
L277.183 224.079
L275.117 224.079
z
" style="fill:#08bee9;opacity:0.5;stroke:#000000;stroke-linejoin:miter;"/>
   </g>
   <g id="patch_50">
    <path clip-path="url(#pbcd484661a)" d="
M330.917 235.239
L332.983 235.239
L332.983 232.449
L330.917 232.449
z
" style="fill:#08bee9;opacity:0.5;stroke:#000000;stroke-linejoin:miter;"/>
   </g>
   <g id="patch_51">
    <path clip-path="url(#pbcd484661a)" d="
M53.9833 235.239
L56.05 235.239
L56.05 20.4091
L53.9833 20.4091
z
" style="fill:#1dd1e2;opacity:0.5;stroke:#000000;stroke-linejoin:miter;"/>
   </g>
   <g id="patch_52">
    <path clip-path="url(#pbcd484661a)" d="
M109.783 235.239
L111.85 235.239
L111.85 210.129
L109.783 210.129
z
" style="fill:#1dd1e2;opacity:0.5;stroke:#000000;stroke-linejoin:miter;"/>
   </g>
   <g id="patch_53">
    <path clip-path="url(#pbcd484661a)" d="
M165.583 235.239
L167.65 235.239
L167.65 221.289
L165.583 221.289
z
" style="fill:#1dd1e2;opacity:0.5;stroke:#000000;stroke-linejoin:miter;"/>
   </g>
   <g id="patch_54">
    <path clip-path="url(#pbcd484661a)" d="
M221.383 235.239
L223.45 235.239
L223.45 218.499
L221.383 218.499
z
" style="fill:#1dd1e2;opacity:0.5;stroke:#000000;stroke-linejoin:miter;"/>
   </g>
   <g id="patch_55">
    <path clip-path="url(#pbcd484661a)" d="
M277.183 235.239
L279.25 235.239
L279.25 229.659
L277.183 229.659
z
" style="fill:#1dd1e2;opacity:0.5;stroke:#000000;stroke-linejoin:miter;"/>
   </g>
   <g id="patch_56">
    <path clip-path="url(#pbcd484661a)" d="
M332.983 235.239
L335.05 235.239
L335.05 235.239
L332.983 235.239
z
" style="fill:#1dd1e2;opacity:0.5;stroke:#000000;stroke-linejoin:miter;"/>
   </g>
   <g id="patch_57">
    <path clip-path="url(#pbcd484661a)" d="
M56.05 235.239
L58.1167 235.239
L58.1167 92.9491
L56.05 92.9491
z
" style="fill:#30e1da;opacity:0.5;stroke:#000000;stroke-linejoin:miter;"/>
   </g>
   <g id="patch_58">
    <path clip-path="url(#pbcd484661a)" d="
M111.85 235.239
L113.917 235.239
L113.917 145.959
L111.85 145.959
z
" style="fill:#30e1da;opacity:0.5;stroke:#000000;stroke-linejoin:miter;"/>
   </g>
   <g id="patch_59">
    <path clip-path="url(#pbcd484661a)" d="
M167.65 235.239
L169.717 235.239
L169.717 210.129
L167.65 210.129
z
" style="fill:#30e1da;opacity:0.5;stroke:#000000;stroke-linejoin:miter;"/>
   </g>
   <g id="patch_60">
    <path clip-path="url(#pbcd484661a)" d="
M223.45 235.239
L225.517 235.239
L225.517 212.919
L223.45 212.919
z
" style="fill:#30e1da;opacity:0.5;stroke:#000000;stroke-linejoin:miter;"/>
   </g>
   <g id="patch_61">
    <path clip-path="url(#pbcd484661a)" d="
M279.25 235.239
L281.317 235.239
L281.317 232.449
L279.25 232.449
z
" style="fill:#30e1da;opacity:0.5;stroke:#000000;stroke-linejoin:miter;"/>
   </g>
   <g id="patch_62">
    <path clip-path="url(#pbcd484661a)" d="
M335.05 235.239
L337.117 235.239
L337.117 235.239
L335.05 235.239
z
" style="fill:#30e1da;opacity:0.5;stroke:#000000;stroke-linejoin:miter;"/>
   </g>
   <g id="patch_63">
    <path clip-path="url(#pbcd484661a)" d="
M58.1167 235.239
L60.1833 235.239
L60.1833 229.659
L58.1167 229.659
z
" style="fill:#44eed2;opacity:0.5;stroke:#000000;stroke-linejoin:miter;"/>
   </g>
   <g id="patch_64">
    <path clip-path="url(#pbcd484661a)" d="
M113.917 235.239
L115.983 235.239
L115.983 224.079
L113.917 224.079
z
" style="fill:#44eed2;opacity:0.5;stroke:#000000;stroke-linejoin:miter;"/>
   </g>
   <g id="patch_65">
    <path clip-path="url(#pbcd484661a)" d="
M169.717 235.239
L171.783 235.239
L171.783 140.379
L169.717 140.379
z
" style="fill:#44eed2;opacity:0.5;stroke:#000000;stroke-linejoin:miter;"/>
   </g>
   <g id="patch_66">
    <path clip-path="url(#pbcd484661a)" d="
M225.517 235.239
L227.583 235.239
L227.583 165.489
L225.517 165.489
z
" style="fill:#44eed2;opacity:0.5;stroke:#000000;stroke-linejoin:miter;"/>
   </g>
   <g id="patch_67">
    <path clip-path="url(#pbcd484661a)" d="
M281.317 235.239
L283.383 235.239
L283.383 168.279
L281.317 168.279
z
" style="fill:#44eed2;opacity:0.5;stroke:#000000;stroke-linejoin:miter;"/>
   </g>
   <g id="patch_68">
    <path clip-path="url(#pbcd484661a)" d="
M337.117 235.239
L339.183 235.239
L339.183 204.549
L337.117 204.549
z
" style="fill:#44eed2;opacity:0.5;stroke:#000000;stroke-linejoin:miter;"/>
   </g>
   <g id="patch_69">
    <path clip-path="url(#pbcd484661a)" d="
M60.1833 235.239
L62.25 235.239
L62.25 179.439
L60.1833 179.439
z
" style="fill:#58f8c9;opacity:0.5;stroke:#000000;stroke-linejoin:miter;"/>
   </g>
   <g id="patch_70">
    <path clip-path="url(#pbcd484661a)" d="
M115.983 235.239
L118.05 235.239
L118.05 185.019
L115.983 185.019
z
" style="fill:#58f8c9;opacity:0.5;stroke:#000000;stroke-linejoin:miter;"/>
   </g>
   <g id="patch_71">
    <path clip-path="url(#pbcd484661a)" d="
M171.783 235.239
L173.85 235.239
L173.85 171.069
L171.783 171.069
z
" style="fill:#58f8c9;opacity:0.5;stroke:#000000;stroke-linejoin:miter;"/>
   </g>
   <g id="patch_72">
    <path clip-path="url(#pbcd484661a)" d="
M227.583 235.239
L229.65 235.239
L229.65 187.809
L227.583 187.809
z
" style="fill:#58f8c9;opacity:0.5;stroke:#000000;stroke-linejoin:miter;"/>
   </g>
   <g id="patch_73">
    <path clip-path="url(#pbcd484661a)" d="
M283.383 235.239
L285.45 235.239
L285.45 182.229
L283.383 182.229
z
" style="fill:#58f8c9;opacity:0.5;stroke:#000000;stroke-linejoin:miter;"/>
   </g>
   <g id="patch_74">
    <path clip-path="url(#pbcd484661a)" d="
M339.183 235.239
L341.25 235.239
L341.25 229.659
L339.183 229.659
z
" style="fill:#58f8c9;opacity:0.5;stroke:#000000;stroke-linejoin:miter;"/>
   </g>
   <g id="patch_75">
    <path clip-path="url(#pbcd484661a)" d="
M62.25 235.239
L64.3167 235.239
L64.3167 78.9991
L62.25 78.9991
z
" style="fill:#6dfdbf;opacity:0.5;stroke:#000000;stroke-linejoin:miter;"/>
   </g>
   <g id="patch_76">
    <path clip-path="url(#pbcd484661a)" d="
M118.05 235.239
L120.117 235.239
L120.117 193.389
L118.05 193.389
z
" style="fill:#6dfdbf;opacity:0.5;stroke:#000000;stroke-linejoin:miter;"/>
   </g>
   <g id="patch_77">
    <path clip-path="url(#pbcd484661a)" d="
M173.85 235.239
L175.917 235.239
L175.917 221.289
L173.85 221.289
z
" style="fill:#6dfdbf;opacity:0.5;stroke:#000000;stroke-linejoin:miter;"/>
   </g>
   <g id="patch_78">
    <path clip-path="url(#pbcd484661a)" d="
M229.65 235.239
L231.717 235.239
L231.717 215.709
L229.65 215.709
z
" style="fill:#6dfdbf;opacity:0.5;stroke:#000000;stroke-linejoin:miter;"/>
   </g>
   <g id="patch_79">
    <path clip-path="url(#pbcd484661a)" d="
M285.45 235.239
L287.517 235.239
L287.517 198.969
L285.45 198.969
z
" style="fill:#6dfdbf;opacity:0.5;stroke:#000000;stroke-linejoin:miter;"/>
   </g>
   <g id="patch_80">
    <path clip-path="url(#pbcd484661a)" d="
M341.25 235.239
L343.317 235.239
L343.317 224.079
L341.25 224.079
z
" style="fill:#6dfdbf;opacity:0.5;stroke:#000000;stroke-linejoin:miter;"/>
   </g>
   <g id="patch_81">
    <path clip-path="url(#pbcd484661a)" d="
M64.3167 235.239
L66.3833 235.239
L66.3833 221.289
L64.3167 221.289
z
" style="fill:#80ffb4;opacity:0.5;stroke:#000000;stroke-linejoin:miter;"/>
   </g>
   <g id="patch_82">
    <path clip-path="url(#pbcd484661a)" d="
M120.117 235.239
L122.183 235.239
L122.183 221.289
L120.117 221.289
z
" style="fill:#80ffb4;opacity:0.5;stroke:#000000;stroke-linejoin:miter;"/>
   </g>
   <g id="patch_83">
    <path clip-path="url(#pbcd484661a)" d="
M175.917 235.239
L177.983 235.239
L177.983 129.219
L175.917 129.219
z
" style="fill:#80ffb4;opacity:0.5;stroke:#000000;stroke-linejoin:miter;"/>
   </g>
   <g id="patch_84">
    <path clip-path="url(#pbcd484661a)" d="
M231.717 235.239
L233.783 235.239
L233.783 185.019
L231.717 185.019
z
" style="fill:#80ffb4;opacity:0.5;stroke:#000000;stroke-linejoin:miter;"/>
   </g>
   <g id="patch_85">
    <path clip-path="url(#pbcd484661a)" d="
M287.517 235.239
L289.583 235.239
L289.583 173.859
L287.517 173.859
z
" style="fill:#80ffb4;opacity:0.5;stroke:#000000;stroke-linejoin:miter;"/>
   </g>
   <g id="patch_86">
    <path clip-path="url(#pbcd484661a)" d="
M343.317 235.239
L345.383 235.239
L345.383 204.549
L343.317 204.549
z
" style="fill:#80ffb4;opacity:0.5;stroke:#000000;stroke-linejoin:miter;"/>
   </g>
   <g id="patch_87">
    <path clip-path="url(#pbcd484661a)" d="
M66.3833 235.239
L68.45 235.239
L68.45 126.429
L66.3833 126.429
z
" style="fill:#92fda9;opacity:0.5;stroke:#000000;stroke-linejoin:miter;"/>
   </g>
   <g id="patch_88">
    <path clip-path="url(#pbcd484661a)" d="
M122.183 235.239
L124.25 235.239
L124.25 173.859
L122.183 173.859
z
" style="fill:#92fda9;opacity:0.5;stroke:#000000;stroke-linejoin:miter;"/>
   </g>
   <g id="patch_89">
    <path clip-path="url(#pbcd484661a)" d="
M177.983 235.239
L180.05 235.239
L180.05 173.859
L177.983 173.859
z
" style="fill:#92fda9;opacity:0.5;stroke:#000000;stroke-linejoin:miter;"/>
   </g>
   <g id="patch_90">
    <path clip-path="url(#pbcd484661a)" d="
M233.783 235.239
L235.85 235.239
L235.85 201.759
L233.783 201.759
z
" style="fill:#92fda9;opacity:0.5;stroke:#000000;stroke-linejoin:miter;"/>
   </g>
   <g id="patch_91">
    <path clip-path="url(#pbcd484661a)" d="
M289.583 235.239
L291.65 235.239
L291.65 224.079
L289.583 224.079
z
" style="fill:#92fda9;opacity:0.5;stroke:#000000;stroke-linejoin:miter;"/>
   </g>
   <g id="patch_92">
    <path clip-path="url(#pbcd484661a)" d="
M345.383 235.239
L347.45 235.239
L347.45 232.449
L345.383 232.449
z
" style="fill:#92fda9;opacity:0.5;stroke:#000000;stroke-linejoin:miter;"/>
   </g>
   <g id="patch_93">
    <path clip-path="url(#pbcd484661a)" d="
M68.45 235.239
L70.5167 235.239
L70.5167 176.649
L68.45 176.649
z
" style="fill:#a6f89d;opacity:0.5;stroke:#000000;stroke-linejoin:miter;"/>
   </g>
   <g id="patch_94">
    <path clip-path="url(#pbcd484661a)" d="
M124.25 235.239
L126.317 235.239
L126.317 179.439
L124.25 179.439
z
" style="fill:#a6f89d;opacity:0.5;stroke:#000000;stroke-linejoin:miter;"/>
   </g>
   <g id="patch_95">
    <path clip-path="url(#pbcd484661a)" d="
M180.05 235.239
L182.117 235.239
L182.117 221.289
L180.05 221.289
z
" style="fill:#a6f89d;opacity:0.5;stroke:#000000;stroke-linejoin:miter;"/>
   </g>
   <g id="patch_96">
    <path clip-path="url(#pbcd484661a)" d="
M235.85 235.239
L237.917 235.239
L237.917 157.119
L235.85 157.119
z
" style="fill:#a6f89d;opacity:0.5;stroke:#000000;stroke-linejoin:miter;"/>
   </g>
   <g id="patch_97">
    <path clip-path="url(#pbcd484661a)" d="
M291.65 235.239
L293.717 235.239
L293.717 185.019
L291.65 185.019
z
" style="fill:#a6f89d;opacity:0.5;stroke:#000000;stroke-linejoin:miter;"/>
   </g>
   <g id="patch_98">
    <path clip-path="url(#pbcd484661a)" d="
M347.45 235.239
L349.517 235.239
L349.517 215.709
L347.45 215.709
z
" style="fill:#a6f89d;opacity:0.5;stroke:#000000;stroke-linejoin:miter;"/>
   </g>
   <g id="patch_99">
    <path clip-path="url(#pbcd484661a)" d="
M70.5167 235.239
L72.5833 235.239
L72.5833 98.5291
L70.5167 98.5291
z
" style="fill:#bbee91;opacity:0.5;stroke:#000000;stroke-linejoin:miter;"/>
   </g>
   <g id="patch_100">
    <path clip-path="url(#pbcd484661a)" d="
M126.317 235.239
L128.383 235.239
L128.383 187.809
L126.317 187.809
z
" style="fill:#bbee91;opacity:0.5;stroke:#000000;stroke-linejoin:miter;"/>
   </g>
   <g id="patch_101">
    <path clip-path="url(#pbcd484661a)" d="
M182.117 235.239
L184.183 235.239
L184.183 179.439
L182.117 179.439
z
" style="fill:#bbee91;opacity:0.5;stroke:#000000;stroke-linejoin:miter;"/>
   </g>
   <g id="patch_102">
    <path clip-path="url(#pbcd484661a)" d="
M237.917 235.239
L239.983 235.239
L239.983 198.969
L237.917 198.969
z
" style="fill:#bbee91;opacity:0.5;stroke:#000000;stroke-linejoin:miter;"/>
   </g>
   <g id="patch_103">
    <path clip-path="url(#pbcd484661a)" d="
M293.717 235.239
L295.783 235.239
L295.783 232.449
L293.717 232.449
z
" style="fill:#bbee91;opacity:0.5;stroke:#000000;stroke-linejoin:miter;"/>
   </g>
   <g id="patch_104">
    <path clip-path="url(#pbcd484661a)" d="
M349.517 235.239
L351.583 235.239
L351.583 235.239
L349.517 235.239
z
" style="fill:#bbee91;opacity:0.5;stroke:#000000;stroke-linejoin:miter;"/>
   </g>
   <g id="patch_105">
    <path clip-path="url(#pbcd484661a)" d="
M72.5833 235.239
L74.65 235.239
L74.65 193.389
L72.5833 193.389
z
" style="fill:#cee184;opacity:0.5;stroke:#000000;stroke-linejoin:miter;"/>
   </g>
   <g id="patch_106">
    <path clip-path="url(#pbcd484661a)" d="
M128.383 235.239
L130.45 235.239
L130.45 201.759
L128.383 201.759
z
" style="fill:#cee184;opacity:0.5;stroke:#000000;stroke-linejoin:miter;"/>
   </g>
   <g id="patch_107">
    <path clip-path="url(#pbcd484661a)" d="
M184.183 235.239
L186.25 235.239
L186.25 168.279
L184.183 168.279
z
" style="fill:#cee184;opacity:0.5;stroke:#000000;stroke-linejoin:miter;"/>
   </g>
   <g id="patch_108">
    <path clip-path="url(#pbcd484661a)" d="
M239.983 235.239
L242.05 235.239
L242.05 134.799
L239.983 134.799
z
" style="fill:#cee184;opacity:0.5;stroke:#000000;stroke-linejoin:miter;"/>
   </g>
   <g id="patch_109">
    <path clip-path="url(#pbcd484661a)" d="
M295.783 235.239
L297.85 235.239
L297.85 201.759
L295.783 201.759
z
" style="fill:#cee184;opacity:0.5;stroke:#000000;stroke-linejoin:miter;"/>
   </g>
   <g id="patch_110">
    <path clip-path="url(#pbcd484661a)" d="
M351.583 235.239
L353.65 235.239
L353.65 232.449
L351.583 232.449
z
" style="fill:#cee184;opacity:0.5;stroke:#000000;stroke-linejoin:miter;"/>
   </g>
   <g id="patch_111">
    <path clip-path="url(#pbcd484661a)" d="
M74.65 235.239
L76.7167 235.239
L76.7167 73.4191
L74.65 73.4191
z
" style="fill:#e2d176;opacity:0.5;stroke:#000000;stroke-linejoin:miter;"/>
   </g>
   <g id="patch_112">
    <path clip-path="url(#pbcd484661a)" d="
M130.45 235.239
L132.517 235.239
L132.517 193.389
L130.45 193.389
z
" style="fill:#e2d176;opacity:0.5;stroke:#000000;stroke-linejoin:miter;"/>
   </g>
   <g id="patch_113">
    <path clip-path="url(#pbcd484661a)" d="
M186.25 235.239
L188.317 235.239
L188.317 201.759
L186.25 201.759
z
" style="fill:#e2d176;opacity:0.5;stroke:#000000;stroke-linejoin:miter;"/>
   </g>
   <g id="patch_114">
    <path clip-path="url(#pbcd484661a)" d="
M242.05 235.239
L244.117 235.239
L244.117 207.339
L242.05 207.339
z
" style="fill:#e2d176;opacity:0.5;stroke:#000000;stroke-linejoin:miter;"/>
   </g>
   <g id="patch_115">
    <path clip-path="url(#pbcd484661a)" d="
M297.85 235.239
L299.917 235.239
L299.917 226.869
L297.85 226.869
z
" style="fill:#e2d176;opacity:0.5;stroke:#000000;stroke-linejoin:miter;"/>
   </g>
   <g id="patch_116">
    <path clip-path="url(#pbcd484661a)" d="
M353.65 235.239
L355.717 235.239
L355.717 235.239
L353.65 235.239
z
" style="fill:#e2d176;opacity:0.5;stroke:#000000;stroke-linejoin:miter;"/>
   </g>
   <g id="patch_117">
    <path clip-path="url(#pbcd484661a)" d="
M76.7167 235.239
L78.7833 235.239
L78.7833 235.239
L76.7167 235.239
z
" style="fill:#f6be68;opacity:0.5;stroke:#000000;stroke-linejoin:miter;"/>
   </g>
   <g id="patch_118">
    <path clip-path="url(#pbcd484661a)" d="
M132.517 235.239
L134.583 235.239
L134.583 226.869
L132.517 226.869
z
" style="fill:#f6be68;opacity:0.5;stroke:#000000;stroke-linejoin:miter;"/>
   </g>
   <g id="patch_119">
    <path clip-path="url(#pbcd484661a)" d="
M188.317 235.239
L190.383 235.239
L190.383 104.109
L188.317 104.109
z
" style="fill:#f6be68;opacity:0.5;stroke:#000000;stroke-linejoin:miter;"/>
   </g>
   <g id="patch_120">
    <path clip-path="url(#pbcd484661a)" d="
M244.117 235.239
L246.183 235.239
L246.183 137.589
L244.117 137.589
z
" style="fill:#f6be68;opacity:0.5;stroke:#000000;stroke-linejoin:miter;"/>
   </g>
   <g id="patch_121">
    <path clip-path="url(#pbcd484661a)" d="
M299.917 235.239
L301.983 235.239
L301.983 193.389
L299.917 193.389
z
" style="fill:#f6be68;opacity:0.5;stroke:#000000;stroke-linejoin:miter;"/>
   </g>
   <g id="patch_122">
    <path clip-path="url(#pbcd484661a)" d="
M355.717 235.239
L357.783 235.239
L357.783 235.239
L355.717 235.239
z
" style="fill:#f6be68;opacity:0.5;stroke:#000000;stroke-linejoin:miter;"/>
   </g>
   <g id="patch_123">
    <path clip-path="url(#pbcd484661a)" d="
M78.7833 235.239
L80.85 235.239
L80.85 81.7891
L78.7833 81.7891
z
" style="fill:#ffa95b;opacity:0.5;stroke:#000000;stroke-linejoin:miter;"/>
   </g>
   <g id="patch_124">
    <path clip-path="url(#pbcd484661a)" d="
M134.583 235.239
L136.65 235.239
L136.65 187.809
L134.583 187.809
z
" style="fill:#ffa95b;opacity:0.5;stroke:#000000;stroke-linejoin:miter;"/>
   </g>
   <g id="patch_125">
    <path clip-path="url(#pbcd484661a)" d="
M190.383 235.239
L192.45 235.239
L192.45 204.549
L190.383 204.549
z
" style="fill:#ffa95b;opacity:0.5;stroke:#000000;stroke-linejoin:miter;"/>
   </g>
   <g id="patch_126">
    <path clip-path="url(#pbcd484661a)" d="
M246.183 235.239
L248.25 235.239
L248.25 198.969
L246.183 198.969
z
" style="fill:#ffa95b;opacity:0.5;stroke:#000000;stroke-linejoin:miter;"/>
   </g>
   <g id="patch_127">
    <path clip-path="url(#pbcd484661a)" d="
M301.983 235.239
L304.05 235.239
L304.05 224.079
L301.983 224.079
z
" style="fill:#ffa95b;opacity:0.5;stroke:#000000;stroke-linejoin:miter;"/>
   </g>
   <g id="patch_128">
    <path clip-path="url(#pbcd484661a)" d="
M357.783 235.239
L359.85 235.239
L359.85 235.239
L357.783 235.239
z
" style="fill:#ffa95b;opacity:0.5;stroke:#000000;stroke-linejoin:miter;"/>
   </g>
   <g id="patch_129">
    <path clip-path="url(#pbcd484661a)" d="
M80.85 235.239
L82.9167 235.239
L82.9167 126.429
L80.85 126.429
z
" style="fill:#ff914c;opacity:0.5;stroke:#000000;stroke-linejoin:miter;"/>
   </g>
   <g id="patch_130">
    <path clip-path="url(#pbcd484661a)" d="
M136.65 235.239
L138.717 235.239
L138.717 198.969
L136.65 198.969
z
" style="fill:#ff914c;opacity:0.5;stroke:#000000;stroke-linejoin:miter;"/>
   </g>
   <g id="patch_131">
    <path clip-path="url(#pbcd484661a)" d="
M192.45 235.239
L194.517 235.239
L194.517 226.869
L192.45 226.869
z
" style="fill:#ff914c;opacity:0.5;stroke:#000000;stroke-linejoin:miter;"/>
   </g>
   <g id="patch_132">
    <path clip-path="url(#pbcd484661a)" d="
M248.25 235.239
L250.317 235.239
L250.317 148.749
L248.25 148.749
z
" style="fill:#ff914c;opacity:0.5;stroke:#000000;stroke-linejoin:miter;"/>
   </g>
   <g id="patch_133">
    <path clip-path="url(#pbcd484661a)" d="
M304.05 235.239
L306.117 235.239
L306.117 204.549
L304.05 204.549
z
" style="fill:#ff914c;opacity:0.5;stroke:#000000;stroke-linejoin:miter;"/>
   </g>
   <g id="patch_134">
    <path clip-path="url(#pbcd484661a)" d="
M359.85 235.239
L361.917 235.239
L361.917 229.659
L359.85 229.659
z
" style="fill:#ff914c;opacity:0.5;stroke:#000000;stroke-linejoin:miter;"/>
   </g>
   <g id="patch_135">
    <path clip-path="url(#pbcd484661a)" d="
M82.9167 235.239
L84.9833 235.239
L84.9833 123.639
L82.9167 123.639
z
" style="fill:#ff763d;opacity:0.5;stroke:#000000;stroke-linejoin:miter;"/>
   </g>
   <g id="patch_136">
    <path clip-path="url(#pbcd484661a)" d="
M138.717 235.239
L140.783 235.239
L140.783 198.969
L138.717 198.969
z
" style="fill:#ff763d;opacity:0.5;stroke:#000000;stroke-linejoin:miter;"/>
   </g>
   <g id="patch_137">
    <path clip-path="url(#pbcd484661a)" d="
M194.517 235.239
L196.583 235.239
L196.583 151.539
L194.517 151.539
z
" style="fill:#ff763d;opacity:0.5;stroke:#000000;stroke-linejoin:miter;"/>
   </g>
   <g id="patch_138">
    <path clip-path="url(#pbcd484661a)" d="
M250.317 235.239
L252.383 235.239
L252.383 212.919
L250.317 212.919
z
" style="fill:#ff763d;opacity:0.5;stroke:#000000;stroke-linejoin:miter;"/>
   </g>
   <g id="patch_139">
    <path clip-path="url(#pbcd484661a)" d="
M306.117 235.239
L308.183 235.239
L308.183 212.919
L306.117 212.919
z
" style="fill:#ff763d;opacity:0.5;stroke:#000000;stroke-linejoin:miter;"/>
   </g>
   <g id="patch_140">
    <path clip-path="url(#pbcd484661a)" d="
M361.917 235.239
L363.983 235.239
L363.983 232.449
L361.917 232.449
z
" style="fill:#ff763d;opacity:0.5;stroke:#000000;stroke-linejoin:miter;"/>
   </g>
   <g id="patch_141">
    <path clip-path="url(#pbcd484661a)" d="
M84.9833 235.239
L87.05 235.239
L87.05 198.969
L84.9833 198.969
z
" style="fill:#ff592d;opacity:0.5;stroke:#000000;stroke-linejoin:miter;"/>
   </g>
   <g id="patch_142">
    <path clip-path="url(#pbcd484661a)" d="
M140.783 235.239
L142.85 235.239
L142.85 212.919
L140.783 212.919
z
" style="fill:#ff592d;opacity:0.5;stroke:#000000;stroke-linejoin:miter;"/>
   </g>
   <g id="patch_143">
    <path clip-path="url(#pbcd484661a)" d="
M196.583 235.239
L198.65 235.239
L198.65 204.549
L196.583 204.549
z
" style="fill:#ff592d;opacity:0.5;stroke:#000000;stroke-linejoin:miter;"/>
   </g>
   <g id="patch_144">
    <path clip-path="url(#pbcd484661a)" d="
M252.383 235.239
L254.45 235.239
L254.45 73.4191
L252.383 73.4191
z
" style="fill:#ff592d;opacity:0.5;stroke:#000000;stroke-linejoin:miter;"/>
   </g>
   <g id="patch_145">
    <path clip-path="url(#pbcd484661a)" d="
M308.183 235.239
L310.25 235.239
L310.25 210.129
L308.183 210.129
z
" style="fill:#ff592d;opacity:0.5;stroke:#000000;stroke-linejoin:miter;"/>
   </g>
   <g id="patch_146">
    <path clip-path="url(#pbcd484661a)" d="
M363.983 235.239
L366.05 235.239
L366.05 232.449
L363.983 232.449
z
" style="fill:#ff592d;opacity:0.5;stroke:#000000;stroke-linejoin:miter;"/>
   </g>
   <g id="patch_147">
    <path clip-path="url(#pbcd484661a)" d="
M87.05 235.239
L89.1167 235.239
L89.1167 101.319
L87.05 101.319
z
" style="fill:#ff3b1e;opacity:0.5;stroke:#000000;stroke-linejoin:miter;"/>
   </g>
   <g id="patch_148">
    <path clip-path="url(#pbcd484661a)" d="
M142.85 235.239
L144.917 235.239
L144.917 198.969
L142.85 198.969
z
" style="fill:#ff3b1e;opacity:0.5;stroke:#000000;stroke-linejoin:miter;"/>
   </g>
   <g id="patch_149">
    <path clip-path="url(#pbcd484661a)" d="
M198.65 235.239
L200.717 235.239
L200.717 198.969
L198.65 198.969
z
" style="fill:#ff3b1e;opacity:0.5;stroke:#000000;stroke-linejoin:miter;"/>
   </g>
   <g id="patch_150">
    <path clip-path="url(#pbcd484661a)" d="
M254.45 235.239
L256.517 235.239
L256.517 190.599
L254.45 190.599
z
" style="fill:#ff3b1e;opacity:0.5;stroke:#000000;stroke-linejoin:miter;"/>
   </g>
   <g id="patch_151">
    <path clip-path="url(#pbcd484661a)" d="
M310.25 235.239
L312.317 235.239
L312.317 212.919
L310.25 212.919
z
" style="fill:#ff3b1e;opacity:0.5;stroke:#000000;stroke-linejoin:miter;"/>
   </g>
   <g id="patch_152">
    <path clip-path="url(#pbcd484661a)" d="
M366.05 235.239
L368.117 235.239
L368.117 229.659
L366.05 229.659
z
" style="fill:#ff3b1e;opacity:0.5;stroke:#000000;stroke-linejoin:miter;"/>
   </g>
   <g id="patch_153">
    <path clip-path="url(#pbcd484661a)" d="
M89.1167 235.239
L91.1833 235.239
L91.1833 98.5291
L89.1167 98.5291
z
" style="fill:#ff1c0e;opacity:0.5;stroke:#000000;stroke-linejoin:miter;"/>
   </g>
   <g id="patch_154">
    <path clip-path="url(#pbcd484661a)" d="
M144.917 235.239
L146.983 235.239
L146.983 212.919
L144.917 212.919
z
" style="fill:#ff1c0e;opacity:0.5;stroke:#000000;stroke-linejoin:miter;"/>
   </g>
   <g id="patch_155">
    <path clip-path="url(#pbcd484661a)" d="
M200.717 235.239
L202.783 235.239
L202.783 201.759
L200.717 201.759
z
" style="fill:#ff1c0e;opacity:0.5;stroke:#000000;stroke-linejoin:miter;"/>
   </g>
   <g id="patch_156">
    <path clip-path="url(#pbcd484661a)" d="
M256.517 235.239
L258.583 235.239
L258.583 173.859
L256.517 173.859
z
" style="fill:#ff1c0e;opacity:0.5;stroke:#000000;stroke-linejoin:miter;"/>
   </g>
   <g id="patch_157">
    <path clip-path="url(#pbcd484661a)" d="
M312.317 235.239
L314.383 235.239
L314.383 212.919
L312.317 212.919
z
" style="fill:#ff1c0e;opacity:0.5;stroke:#000000;stroke-linejoin:miter;"/>
   </g>
   <g id="patch_158">
    <path clip-path="url(#pbcd484661a)" d="
M368.117 235.239
L370.183 235.239
L370.183 232.449
L368.117 232.449
z
" style="fill:#ff1c0e;opacity:0.5;stroke:#000000;stroke-linejoin:miter;"/>
   </g>
   <g id="patch_159">
    <path clip-path="url(#pbcd484661a)" d="
M91.1833 235.239
L93.25 235.239
L93.25 159.909
L91.1833 159.909
z
" style="fill:#ff0000;opacity:0.5;stroke:#000000;stroke-linejoin:miter;"/>
   </g>
   <g id="patch_160">
    <path clip-path="url(#pbcd484661a)" d="
M146.983 235.239
L149.05 235.239
L149.05 226.869
L146.983 226.869
z
" style="fill:#ff0000;opacity:0.5;stroke:#000000;stroke-linejoin:miter;"/>
   </g>
   <g id="patch_161">
    <path clip-path="url(#pbcd484661a)" d="
M202.783 235.239
L204.85 235.239
L204.85 190.599
L202.783 190.599
z
" style="fill:#ff0000;opacity:0.5;stroke:#000000;stroke-linejoin:miter;"/>
   </g>
   <g id="patch_162">
    <path clip-path="url(#pbcd484661a)" d="
M258.583 235.239
L260.65 235.239
L260.65 123.639
L258.583 123.639
z
" style="fill:#ff0000;opacity:0.5;stroke:#000000;stroke-linejoin:miter;"/>
   </g>
   <g id="patch_163">
    <path clip-path="url(#pbcd484661a)" d="
M314.383 235.239
L316.45 235.239
L316.45 207.339
L314.383 207.339
z
" style="fill:#ff0000;opacity:0.5;stroke:#000000;stroke-linejoin:miter;"/>
   </g>
   <g id="patch_164">
    <path clip-path="url(#pbcd484661a)" d="
M370.183 235.239
L372.25 235.239
L372.25 224.079
L370.183 224.079
z
" style="fill:#ff0000;opacity:0.5;stroke:#000000;stroke-linejoin:miter;"/>
   </g>
   <g id="patch_165">
    <path d="
M37.45 12.0391
L372.25 12.0391" style="fill:none;stroke:#000000;stroke-linecap:square;stroke-linejoin:miter;"/>
   </g>
   <g id="patch_166">
    <path d="
M372.25 235.239
L372.25 12.0391" style="fill:none;stroke:#000000;stroke-linecap:square;stroke-linejoin:miter;"/>
   </g>
   <g id="patch_167">
    <path d="
M37.45 235.239
L372.25 235.239" style="fill:none;stroke:#000000;stroke-linecap:square;stroke-linejoin:miter;"/>
   </g>
   <g id="patch_168">
    <path d="
M37.45 235.239
L37.45 12.0391" style="fill:none;stroke:#000000;stroke-linecap:square;stroke-linejoin:miter;"/>
   </g>
   <g id="matplotlib.axis_1">
    <g id="xtick_1">
     <g id="line2d_1"/>
     <g id="line2d_2">
      <defs>
       <path d="
M0 0
L0 -4" id="m93b0483c22" style="stroke:#000000;stroke-width:0.5;"/>
      </defs>
      <g>
       <use style="stroke:#000000;stroke-width:0.5;" x="65.35" xlink:href="#m93b0483c22" y="235.2390625"/>
      </g>
     </g>
     <g id="text_1">
      <!-- 0 -->
      <defs>
       <path d="
M31.7812 66.4062
Q24.1719 66.4062 20.3281 58.9062
Q16.5 51.4219 16.5 36.375
Q16.5 21.3906 20.3281 13.8906
Q24.1719 6.39062 31.7812 6.39062
Q39.4531 6.39062 43.2812 13.8906
Q47.125 21.3906 47.125 36.375
Q47.125 51.4219 43.2812 58.9062
Q39.4531 66.4062 31.7812 66.4062
M31.7812 74.2188
Q44.0469 74.2188 50.5156 64.5156
Q56.9844 54.8281 56.9844 36.375
Q56.9844 17.9688 50.5156 8.26562
Q44.0469 -1.42188 31.7812 -1.42188
Q19.5312 -1.42188 13.0625 8.26562
Q6.59375 17.9688 6.59375 36.375
Q6.59375 54.8281 13.0625 64.5156
Q19.5312 74.2188 31.7812 74.2188" id="DejaVuSans-30"/>
      </defs>
      <g transform="translate(62.83046875 246.8375)scale(0.1 -0.1)">
       <use xlink:href="#DejaVuSans-30"/>
      </g>
     </g>
    </g>
    <g id="xtick_2">
     <g id="line2d_3"/>
     <g id="line2d_4">
      <g>
       <use style="stroke:#000000;stroke-width:0.5;" x="121.15" xlink:href="#m93b0483c22" y="235.2390625"/>
      </g>
     </g>
     <g id="text_2">
      <!-- 1 -->
      <defs>
       <path d="
M12.4062 8.29688
L28.5156 8.29688
L28.5156 63.9219
L10.9844 60.4062
L10.9844 69.3906
L28.4219 72.9062
L38.2812 72.9062
L38.2812 8.29688
L54.3906 8.29688
L54.3906 0
L12.4062 0
z
" id="DejaVuSans-31"/>
      </defs>
      <g transform="translate(118.9796875 246.8375)scale(0.1 -0.1)">
       <use xlink:href="#DejaVuSans-31"/>
      </g>
     </g>
    </g>
    <g id="xtick_3">
     <g id="line2d_5"/>
     <g id="line2d_6">
      <g>
       <use style="stroke:#000000;stroke-width:0.5;" x="176.95" xlink:href="#m93b0483c22" y="235.2390625"/>
      </g>
     </g>
     <g id="text_3">
      <!-- 2 -->
      <defs>
       <path d="
M19.1875 8.29688
L53.6094 8.29688
L53.6094 0
L7.32812 0
L7.32812 8.29688
Q12.9375 14.1094 22.625 23.8906
Q32.3281 33.6875 34.8125 36.5312
Q39.5469 41.8438 41.4219 45.5312
Q43.3125 49.2188 43.3125 52.7812
Q43.3125 58.5938 39.2344 62.25
Q35.1562 65.9219 28.6094 65.9219
Q23.9688 65.9219 18.8125 64.3125
Q13.6719 62.7031 7.8125 59.4219
L7.8125 69.3906
Q13.7656 71.7812 18.9375 73
Q24.125 74.2188 28.4219 74.2188
Q39.75 74.2188 46.4844 68.5469
Q53.2188 62.8906 53.2188 53.4219
Q53.2188 48.9219 51.5312 44.8906
Q49.8594 40.875 45.4062 35.4062
Q44.1875 33.9844 37.6406 27.2188
Q31.1094 20.4531 19.1875 8.29688" id="DejaVuSans-32"/>
      </defs>
      <g transform="translate(174.6359375 246.8375)scale(0.1 -0.1)">
       <use xlink:href="#DejaVuSans-32"/>
      </g>
     </g>
    </g>
    <g id="xtick_4">
     <g id="line2d_7"/>
     <g id="line2d_8">
      <g>
       <use style="stroke:#000000;stroke-width:0.5;" x="232.75" xlink:href="#m93b0483c22" y="235.2390625"/>
      </g>
     </g>
     <g id="text_4">
      <!-- 3 -->
      <defs>
       <path d="
M40.5781 39.3125
Q47.6562 37.7969 51.625 33
Q55.6094 28.2188 55.6094 21.1875
Q55.6094 10.4062 48.1875 4.48438
Q40.7656 -1.42188 27.0938 -1.42188
Q22.5156 -1.42188 17.6562 -0.515625
Q12.7969 0.390625 7.625 2.20312
L7.625 11.7188
Q11.7188 9.32812 16.5938 8.10938
Q21.4844 6.89062 26.8125 6.89062
Q36.0781 6.89062 40.9375 10.5469
Q45.7969 14.2031 45.7969 21.1875
Q45.7969 27.6406 41.2812 31.2656
Q36.7656 34.9062 28.7188 34.9062
L20.2188 34.9062
L20.2188 43.0156
L29.1094 43.0156
Q36.375 43.0156 40.2344 45.9219
Q44.0938 48.8281 44.0938 54.2969
Q44.0938 59.9062 40.1094 62.9062
Q36.1406 65.9219 28.7188 65.9219
Q24.6562 65.9219 20.0156 65.0312
Q15.375 64.1562 9.8125 62.3125
L9.8125 71.0938
Q15.4375 72.6562 20.3438 73.4375
Q25.25 74.2188 29.5938 74.2188
Q40.8281 74.2188 47.3594 69.1094
Q53.9062 64.0156 53.9062 55.3281
Q53.9062 49.2656 50.4375 45.0938
Q46.9688 40.9219 40.5781 39.3125" id="DejaVuSans-33"/>
      </defs>
      <g transform="translate(230.35078125 246.8375)scale(0.1 -0.1)">
       <use xlink:href="#DejaVuSans-33"/>
      </g>
     </g>
    </g>
    <g id="xtick_5">
     <g id="line2d_9"/>
     <g id="line2d_10">
      <g>
       <use style="stroke:#000000;stroke-width:0.5;" x="288.55" xlink:href="#m93b0483c22" y="235.2390625"/>
      </g>
     </g>
     <g id="text_5">
      <!-- 4 -->
      <defs>
       <path d="
M37.7969 64.3125
L12.8906 25.3906
L37.7969 25.3906
z

M35.2031 72.9062
L47.6094 72.9062
L47.6094 25.3906
L58.0156 25.3906
L58.0156 17.1875
L47.6094 17.1875
L47.6094 0
L37.7969 0
L37.7969 17.1875
L4.89062 17.1875
L4.89062 26.7031
z
" id="DejaVuSans-34"/>
      </defs>
      <g transform="translate(285.89375 246.8375)scale(0.1 -0.1)">
       <use xlink:href="#DejaVuSans-34"/>
      </g>
     </g>
    </g>
    <g id="xtick_6">
     <g id="line2d_11"/>
     <g id="line2d_12">
      <g>
       <use style="stroke:#000000;stroke-width:0.5;" x="344.35" xlink:href="#m93b0483c22" y="235.2390625"/>
      </g>
     </g>
     <g id="text_6">
      <!-- 5 -->
      <defs>
       <path d="
M10.7969 72.9062
L49.5156 72.9062
L49.5156 64.5938
L19.8281 64.5938
L19.8281 46.7344
Q21.9688 47.4688 24.1094 47.8281
Q26.2656 48.1875 28.4219 48.1875
Q40.625 48.1875 47.75 41.5
Q54.8906 34.8125 54.8906 23.3906
Q54.8906 11.625 47.5625 5.09375
Q40.2344 -1.42188 26.9062 -1.42188
Q22.3125 -1.42188 17.5469 -0.640625
Q12.7969 0.140625 7.71875 1.70312
L7.71875 11.625
Q12.1094 9.23438 16.7969 8.0625
Q21.4844 6.89062 26.7031 6.89062
Q35.1562 6.89062 40.0781 11.3281
Q45.0156 15.7656 45.0156 23.3906
Q45.0156 31 40.0781 35.4375
Q35.1562 39.8906 26.7031 39.8906
Q22.75 39.8906 18.8125 39.0156
Q14.8906 38.1406 10.7969 36.2812
z
" id="DejaVuSans-35"/>
      </defs>
      <g transform="translate(341.99140625 246.8375)scale(0.1 -0.1)">
       <use xlink:href="#DejaVuSans-35"/>
      </g>
     </g>
    </g>
    <g id="xtick_7">
     <g id="line2d_13">
      <path clip-path="url(#pbcd484661a)" d="
M93.25 235.239
L93.25 12.0391" style="fill:none;stroke:#000000;stroke-linecap:square;stroke-width:0.5;"/>
     </g>
     <g id="line2d_14">
      <defs>
       <path d="
M0 0
L0 -2" id="m177f7580d0" style="stroke:#000000;stroke-width:0.5;"/>
      </defs>
      <g>
       <use style="stroke:#000000;stroke-width:0.5;" x="93.25" xlink:href="#m177f7580d0" y="235.2390625"/>
      </g>
     </g>
     <g id="line2d_15">
      <defs>
       <path d="
M0 0
L0 2" id="m5284c7e2a0" style="stroke:#000000;stroke-width:0.5;"/>
      </defs>
      <g>
       <use style="stroke:#000000;stroke-width:0.5;" x="93.25" xlink:href="#m5284c7e2a0" y="12.0390625"/>
      </g>
     </g>
    </g>
    <g id="xtick_8">
     <g id="line2d_16">
      <path clip-path="url(#pbcd484661a)" d="
M149.05 235.239
L149.05 12.0391" style="fill:none;stroke:#000000;stroke-linecap:square;stroke-width:0.5;"/>
     </g>
     <g id="line2d_17">
      <g>
       <use style="stroke:#000000;stroke-width:0.5;" x="149.05" xlink:href="#m177f7580d0" y="235.2390625"/>
      </g>
     </g>
     <g id="line2d_18">
      <g>
       <use style="stroke:#000000;stroke-width:0.5;" x="149.05" xlink:href="#m5284c7e2a0" y="12.0390625"/>
      </g>
     </g>
    </g>
    <g id="xtick_9">
     <g id="line2d_19">
      <path clip-path="url(#pbcd484661a)" d="
M204.85 235.239
L204.85 12.0391" style="fill:none;stroke:#000000;stroke-linecap:square;stroke-width:0.5;"/>
     </g>
     <g id="line2d_20">
      <g>
       <use style="stroke:#000000;stroke-width:0.5;" x="204.85" xlink:href="#m177f7580d0" y="235.2390625"/>
      </g>
     </g>
     <g id="line2d_21">
      <g>
       <use style="stroke:#000000;stroke-width:0.5;" x="204.85" xlink:href="#m5284c7e2a0" y="12.0390625"/>
      </g>
     </g>
    </g>
    <g id="xtick_10">
     <g id="line2d_22">
      <path clip-path="url(#pbcd484661a)" d="
M260.65 235.239
L260.65 12.0391" style="fill:none;stroke:#000000;stroke-linecap:square;stroke-width:0.5;"/>
     </g>
     <g id="line2d_23">
      <g>
       <use style="stroke:#000000;stroke-width:0.5;" x="260.65" xlink:href="#m177f7580d0" y="235.2390625"/>
      </g>
     </g>
     <g id="line2d_24">
      <g>
       <use style="stroke:#000000;stroke-width:0.5;" x="260.65" xlink:href="#m5284c7e2a0" y="12.0390625"/>
      </g>
     </g>
    </g>
    <g id="xtick_11">
     <g id="line2d_25">
      <path clip-path="url(#pbcd484661a)" d="
M316.45 235.239
L316.45 12.0391" style="fill:none;stroke:#000000;stroke-linecap:square;stroke-width:0.5;"/>
     </g>
     <g id="line2d_26">
      <g>
       <use style="stroke:#000000;stroke-width:0.5;" x="316.45" xlink:href="#m177f7580d0" y="235.2390625"/>
      </g>
     </g>
     <g id="line2d_27">
      <g>
       <use style="stroke:#000000;stroke-width:0.5;" x="316.45" xlink:href="#m5284c7e2a0" y="12.0390625"/>
      </g>
     </g>
    </g>
    <g id="xtick_12">
     <g id="line2d_28">
      <path clip-path="url(#pbcd484661a)" d="
M372.25 235.239
L372.25 12.0391" style="fill:none;stroke:#000000;stroke-linecap:square;stroke-width:0.5;"/>
     </g>
     <g id="line2d_29">
      <g>
       <use style="stroke:#000000;stroke-width:0.5;" x="372.25" xlink:href="#m177f7580d0" y="235.2390625"/>
      </g>
     </g>
     <g id="line2d_30">
      <g>
       <use style="stroke:#000000;stroke-width:0.5;" x="372.25" xlink:href="#m5284c7e2a0" y="12.0390625"/>
      </g>
     </g>
    </g>
    <g id="text_7">
     <!-- Maximum AU Intensity in Label -->
     <defs>
      <path d="
M9.8125 72.9062
L24.5156 72.9062
L43.1094 23.2969
L61.8125 72.9062
L76.5156 72.9062
L76.5156 0
L66.8906 0
L66.8906 64.0156
L48.0938 14.0156
L38.1875 14.0156
L19.3906 64.0156
L19.3906 0
L9.8125 0
z
" id="DejaVuSans-4d"/>
      <path d="
M34.1875 63.1875
L20.7969 26.9062
L47.6094 26.9062
z

M28.6094 72.9062
L39.7969 72.9062
L67.5781 0
L57.3281 0
L50.6875 18.7031
L17.8281 18.7031
L11.1875 0
L0.78125 0
z
" id="DejaVuSans-41"/>
      <path d="
M9.8125 72.9062
L19.6719 72.9062
L19.6719 8.29688
L55.1719 8.29688
L55.1719 0
L9.8125 0
z
" id="DejaVuSans-4c"/>
      <path d="
M52 44.1875
Q55.375 50.25 60.0625 53.125
Q64.75 56 71.0938 56
Q79.6406 56 84.2812 50.0156
Q88.9219 44.0469 88.9219 33.0156
L88.9219 0
L79.8906 0
L79.8906 32.7188
Q79.8906 40.5781 77.0938 44.375
Q74.3125 48.1875 68.6094 48.1875
Q61.625 48.1875 57.5625 43.5469
Q53.5156 38.9219 53.5156 30.9062
L53.5156 0
L44.4844 0
L44.4844 32.7188
Q44.4844 40.625 41.7031 44.4062
Q38.9219 48.1875 33.1094 48.1875
Q26.2188 48.1875 22.1562 43.5312
Q18.1094 38.875 18.1094 30.9062
L18.1094 0
L9.07812 0
L9.07812 54.6875
L18.1094 54.6875
L18.1094 46.1875
Q21.1875 51.2188 25.4844 53.6094
Q29.7812 56 35.6875 56
Q41.6562 56 45.8281 52.9688
Q50 49.9531 52 44.1875" id="DejaVuSans-6d"/>
      <path d="
M54.8906 33.0156
L54.8906 0
L45.9062 0
L45.9062 32.7188
Q45.9062 40.4844 42.875 44.3281
Q39.8438 48.1875 33.7969 48.1875
Q26.5156 48.1875 22.3125 43.5469
Q18.1094 38.9219 18.1094 30.9062
L18.1094 0
L9.07812 0
L9.07812 54.6875
L18.1094 54.6875
L18.1094 46.1875
Q21.3438 51.125 25.7031 53.5625
Q30.0781 56 35.7969 56
Q45.2188 56 50.0469 50.1719
Q54.8906 44.3438 54.8906 33.0156" id="DejaVuSans-6e"/>
      <path d="
M9.42188 75.9844
L18.4062 75.9844
L18.4062 0
L9.42188 0
z
" id="DejaVuSans-6c"/>
      <path d="
M44.2812 53.0781
L44.2812 44.5781
Q40.4844 46.5312 36.375 47.5
Q32.2812 48.4844 27.875 48.4844
Q21.1875 48.4844 17.8438 46.4375
Q14.5 44.3906 14.5 40.2812
Q14.5 37.1562 16.8906 35.375
Q19.2812 33.5938 26.5156 31.9844
L29.5938 31.2969
Q39.1562 29.25 43.1875 25.5156
Q47.2188 21.7812 47.2188 15.0938
Q47.2188 7.46875 41.1875 3.01562
Q35.1562 -1.42188 24.6094 -1.42188
Q20.2188 -1.42188 15.4531 -0.5625
Q10.6875 0.296875 5.42188 2
L5.42188 11.2812
Q10.4062 8.6875 15.2344 7.39062
Q20.0625 6.10938 24.8125 6.10938
Q31.1562 6.10938 34.5625 8.28125
Q37.9844 10.4531 37.9844 14.4062
Q37.9844 18.0625 35.5156 20.0156
Q33.0625 21.9688 24.7031 23.7812
L21.5781 24.5156
Q13.2344 26.2656 9.51562 29.9062
Q5.8125 33.5469 5.8125 39.8906
Q5.8125 47.6094 11.2812 51.7969
Q16.75 56 26.8125 56
Q31.7812 56 36.1719 55.2656
Q40.5781 54.5469 44.2812 53.0781" id="DejaVuSans-73"/>
      <path id="DejaVuSans-20"/>
      <path d="
M32.1719 -5.07812
Q28.375 -14.8438 24.75 -17.8125
Q21.1406 -20.7969 15.0938 -20.7969
L7.90625 -20.7969
L7.90625 -13.2812
L13.1875 -13.2812
Q16.8906 -13.2812 18.9375 -11.5156
Q21 -9.76562 23.4844 -3.21875
L25.0938 0.875
L2.98438 54.6875
L12.5 54.6875
L29.5938 11.9219
L46.6875 54.6875
L56.2031 54.6875
z
" id="DejaVuSans-79"/>
      <path d="
M54.8906 54.6875
L35.1094 28.0781
L55.9062 0
L45.3125 0
L29.3906 21.4844
L13.4844 0
L2.875 0
L24.125 28.6094
L4.6875 54.6875
L15.2812 54.6875
L29.7812 35.2031
L44.2812 54.6875
z
" id="DejaVuSans-78"/>
      <path d="
M9.42188 54.6875
L18.4062 54.6875
L18.4062 0
L9.42188 0
z

M9.42188 75.9844
L18.4062 75.9844
L18.4062 64.5938
L9.42188 64.5938
z
" id="DejaVuSans-69"/>
      <path d="
M8.5 21.5781
L8.5 54.6875
L17.4844 54.6875
L17.4844 21.9219
Q17.4844 14.1562 20.5 10.2656
Q23.5312 6.39062 29.5938 6.39062
Q36.8594 6.39062 41.0781 11.0312
Q45.3125 15.6719 45.3125 23.6875
L45.3125 54.6875
L54.2969 54.6875
L54.2969 0
L45.3125 0
L45.3125 8.40625
Q42.0469 3.42188 37.7188 1
Q33.4062 -1.42188 27.6875 -1.42188
Q18.2656 -1.42188 13.375 4.4375
Q8.5 10.2969 8.5 21.5781
M31.1094 56
z
" id="DejaVuSans-75"/>
      <path d="
M18.3125 70.2188
L18.3125 54.6875
L36.8125 54.6875
L36.8125 47.7031
L18.3125 47.7031
L18.3125 18.0156
Q18.3125 11.3281 20.1406 9.42188
Q21.9688 7.51562 27.5938 7.51562
L36.8125 7.51562
L36.8125 0
L27.5938 0
Q17.1875 0 13.2344 3.875
Q9.28125 7.76562 9.28125 18.0156
L9.28125 47.7031
L2.6875 47.7031
L2.6875 54.6875
L9.28125 54.6875
L9.28125 70.2188
z
" id="DejaVuSans-74"/>
      <path d="
M56.2031 29.5938
L56.2031 25.2031
L14.8906 25.2031
Q15.4844 15.9219 20.4844 11.0625
Q25.4844 6.20312 34.4219 6.20312
Q39.5938 6.20312 44.4531 7.46875
Q49.3125 8.73438 54.1094 11.2812
L54.1094 2.78125
Q49.2656 0.734375 44.1875 -0.34375
Q39.1094 -1.42188 33.8906 -1.42188
Q20.7969 -1.42188 13.1562 6.1875
Q5.51562 13.8125 5.51562 26.8125
Q5.51562 40.2344 12.7656 48.1094
Q20.0156 56 32.3281 56
Q43.3594 56 49.7812 48.8906
Q56.2031 41.7969 56.2031 29.5938
M47.2188 32.2344
Q47.125 39.5938 43.0938 43.9844
Q39.0625 48.3906 32.4219 48.3906
Q24.9062 48.3906 20.3906 44.1406
Q15.875 39.8906 15.1875 32.1719
z
" id="DejaVuSans-65"/>
      <path d="
M48.6875 27.2969
Q48.6875 37.2031 44.6094 42.8438
Q40.5312 48.4844 33.4062 48.4844
Q26.2656 48.4844 22.1875 42.8438
Q18.1094 37.2031 18.1094 27.2969
Q18.1094 17.3906 22.1875 11.75
Q26.2656 6.10938 33.4062 6.10938
Q40.5312 6.10938 44.6094 11.75
Q48.6875 17.3906 48.6875 27.2969
M18.1094 46.3906
Q20.9531 51.2656 25.2656 53.625
Q29.5938 56 35.5938 56
Q45.5625 56 51.7812 48.0938
Q58.0156 40.1875 58.0156 27.2969
Q58.0156 14.4062 51.7812 6.48438
Q45.5625 -1.42188 35.5938 -1.42188
Q29.5938 -1.42188 25.2656 0.953125
Q20.9531 3.32812 18.1094 8.20312
L18.1094 0
L9.07812 0
L9.07812 75.9844
L18.1094 75.9844
z
" id="DejaVuSans-62"/>
      <path d="
M9.8125 72.9062
L19.6719 72.9062
L19.6719 0
L9.8125 0
z
" id="DejaVuSans-49"/>
      <path d="
M8.6875 72.9062
L18.6094 72.9062
L18.6094 28.6094
Q18.6094 16.8906 22.8438 11.7344
Q27.0938 6.59375 36.625 6.59375
Q46.0938 6.59375 50.3438 11.7344
Q54.5938 16.8906 54.5938 28.6094
L54.5938 72.9062
L64.5 72.9062
L64.5 27.3906
Q64.5 13.1406 57.4375 5.85938
Q50.3906 -1.42188 36.625 -1.42188
Q22.7969 -1.42188 15.7344 5.85938
Q8.6875 13.1406 8.6875 27.3906
z
" id="DejaVuSans-55"/>
      <path d="
M34.2812 27.4844
Q23.3906 27.4844 19.1875 25
Q14.9844 22.5156 14.9844 16.5
Q14.9844 11.7188 18.1406 8.90625
Q21.2969 6.10938 26.7031 6.10938
Q34.1875 6.10938 38.7031 11.4062
Q43.2188 16.7031 43.2188 25.4844
L43.2188 27.4844
z

M52.2031 31.2031
L52.2031 0
L43.2188 0
L43.2188 8.29688
Q40.1406 3.32812 35.5469 0.953125
Q30.9531 -1.42188 24.3125 -1.42188
Q15.9219 -1.42188 10.9531 3.29688
Q6 8.01562 6 15.9219
Q6 25.1406 12.1719 29.8281
Q18.3594 34.5156 30.6094 34.5156
L43.2188 34.5156
L43.2188 35.4062
Q43.2188 41.6094 39.1406 45
Q35.0625 48.3906 27.6875 48.3906
Q23 48.3906 18.5469 47.2656
Q14.1094 46.1406 10.0156 43.8906
L10.0156 52.2031
Q14.9375 54.1094 19.5781 55.0469
Q24.2188 56 28.6094 56
Q40.4844 56 46.3438 49.8438
Q52.2031 43.7031 52.2031 31.2031" id="DejaVuSans-61"/>
     </defs>
     <g transform="translate(127.43671875 261.515625)scale(0.1 -0.1)">
      <use xlink:href="#DejaVuSans-4d"/>
      <use x="86.279296875" xlink:href="#DejaVuSans-61"/>
      <use x="147.55859375" xlink:href="#DejaVuSans-78"/>
      <use x="206.73828125" xlink:href="#DejaVuSans-69"/>
      <use x="234.521484375" xlink:href="#DejaVuSans-6d"/>
      <use x="331.93359375" xlink:href="#DejaVuSans-75"/>
      <use x="395.3125" xlink:href="#DejaVuSans-6d"/>
      <use x="492.724609375" xlink:href="#DejaVuSans-20"/>
      <use x="524.51171875" xlink:href="#DejaVuSans-41"/>
      <use x="592.919921875" xlink:href="#DejaVuSans-55"/>
      <use x="666.11328125" xlink:href="#DejaVuSans-20"/>
      <use x="697.900390625" xlink:href="#DejaVuSans-49"/>
      <use x="727.392578125" xlink:href="#DejaVuSans-6e"/>
      <use x="790.771484375" xlink:href="#DejaVuSans-74"/>
      <use x="829.98046875" xlink:href="#DejaVuSans-65"/>
      <use x="891.50390625" xlink:href="#DejaVuSans-6e"/>
      <use x="954.8828125" xlink:href="#DejaVuSans-73"/>
      <use x="1006.98242188" xlink:href="#DejaVuSans-69"/>
      <use x="1034.765625" xlink:href="#DejaVuSans-74"/>
      <use x="1073.97460938" xlink:href="#DejaVuSans-79"/>
      <use x="1133.15429688" xlink:href="#DejaVuSans-20"/>
      <use x="1164.94140625" xlink:href="#DejaVuSans-69"/>
      <use x="1192.72460938" xlink:href="#DejaVuSans-6e"/>
      <use x="1256.10351562" xlink:href="#DejaVuSans-20"/>
      <use x="1287.890625" xlink:href="#DejaVuSans-4c"/>
      <use x="1343.60351562" xlink:href="#DejaVuSans-61"/>
      <use x="1404.8828125" xlink:href="#DejaVuSans-62"/>
      <use x="1468.359375" xlink:href="#DejaVuSans-65"/>
      <use x="1529.8828125" xlink:href="#DejaVuSans-6c"/>
     </g>
    </g>
   </g>
   <g id="matplotlib.axis_2">
    <g id="ytick_1">
     <g id="line2d_31">
      <defs>
       <path d="
M0 0
L4 0" id="m728421d6d4" style="stroke:#000000;stroke-width:0.5;"/>
      </defs>
      <g>
       <use style="stroke:#000000;stroke-width:0.5;" x="37.45" xlink:href="#m728421d6d4" y="235.2390625"/>
      </g>
     </g>
     <g id="line2d_32">
      <defs>
       <path d="
M0 0
L-4 0" id="mcb0005524f" style="stroke:#000000;stroke-width:0.5;"/>
      </defs>
      <g>
       <use style="stroke:#000000;stroke-width:0.5;" x="372.25" xlink:href="#mcb0005524f" y="235.2390625"/>
      </g>
     </g>
     <g id="text_8">
      <!-- 0 -->
      <g transform="translate(28.4109375 237.9984375)scale(0.1 -0.1)">
       <use xlink:href="#DejaVuSans-30"/>
      </g>
     </g>
    </g>
    <g id="ytick_2">
     <g id="line2d_33">
      <g>
       <use style="stroke:#000000;stroke-width:0.5;" x="37.45" xlink:href="#m728421d6d4" y="207.3390625"/>
      </g>
     </g>
     <g id="line2d_34">
      <g>
       <use style="stroke:#000000;stroke-width:0.5;" x="372.25" xlink:href="#mcb0005524f" y="207.3390625"/>
      </g>
     </g>
     <g id="text_9">
      <!-- 10 -->
      <g transform="translate(22.4875 210.0984375)scale(0.1 -0.1)">
       <use xlink:href="#DejaVuSans-31"/>
       <use x="63.623046875" xlink:href="#DejaVuSans-30"/>
      </g>
     </g>
    </g>
    <g id="ytick_3">
     <g id="line2d_35">
      <g>
       <use style="stroke:#000000;stroke-width:0.5;" x="37.45" xlink:href="#m728421d6d4" y="179.4390625"/>
      </g>
     </g>
     <g id="line2d_36">
      <g>
       <use style="stroke:#000000;stroke-width:0.5;" x="372.25" xlink:href="#mcb0005524f" y="179.4390625"/>
      </g>
     </g>
     <g id="text_10">
      <!-- 20 -->
      <g transform="translate(22.121875 182.1984375)scale(0.1 -0.1)">
       <use xlink:href="#DejaVuSans-32"/>
       <use x="63.623046875" xlink:href="#DejaVuSans-30"/>
      </g>
     </g>
    </g>
    <g id="ytick_4">
     <g id="line2d_37">
      <g>
       <use style="stroke:#000000;stroke-width:0.5;" x="37.45" xlink:href="#m728421d6d4" y="151.5390625"/>
      </g>
     </g>
     <g id="line2d_38">
      <g>
       <use style="stroke:#000000;stroke-width:0.5;" x="372.25" xlink:href="#mcb0005524f" y="151.5390625"/>
      </g>
     </g>
     <g id="text_11">
      <!-- 30 -->
      <g transform="translate(22.1515625 154.2984375)scale(0.1 -0.1)">
       <use xlink:href="#DejaVuSans-33"/>
       <use x="63.623046875" xlink:href="#DejaVuSans-30"/>
      </g>
     </g>
    </g>
    <g id="ytick_5">
     <g id="line2d_39">
      <g>
       <use style="stroke:#000000;stroke-width:0.5;" x="37.45" xlink:href="#m728421d6d4" y="123.6390625"/>
      </g>
     </g>
     <g id="line2d_40">
      <g>
       <use style="stroke:#000000;stroke-width:0.5;" x="372.25" xlink:href="#mcb0005524f" y="123.6390625"/>
      </g>
     </g>
     <g id="text_12">
      <!-- 40 -->
      <g transform="translate(21.878125 126.3984375)scale(0.1 -0.1)">
       <use xlink:href="#DejaVuSans-34"/>
       <use x="63.623046875" xlink:href="#DejaVuSans-30"/>
      </g>
     </g>
    </g>
    <g id="ytick_6">
     <g id="line2d_41">
      <g>
       <use style="stroke:#000000;stroke-width:0.5;" x="37.45" xlink:href="#m728421d6d4" y="95.7390625"/>
      </g>
     </g>
     <g id="line2d_42">
      <g>
       <use style="stroke:#000000;stroke-width:0.5;" x="372.25" xlink:href="#mcb0005524f" y="95.7390625"/>
      </g>
     </g>
     <g id="text_13">
      <!-- 50 -->
      <g transform="translate(22.1609375 98.4984375)scale(0.1 -0.1)">
       <use xlink:href="#DejaVuSans-35"/>
       <use x="63.623046875" xlink:href="#DejaVuSans-30"/>
      </g>
     </g>
    </g>
    <g id="ytick_7">
     <g id="line2d_43">
      <g>
       <use style="stroke:#000000;stroke-width:0.5;" x="37.45" xlink:href="#m728421d6d4" y="67.8390625"/>
      </g>
     </g>
     <g id="line2d_44">
      <g>
       <use style="stroke:#000000;stroke-width:0.5;" x="372.25" xlink:href="#mcb0005524f" y="67.8390625"/>
      </g>
     </g>
     <g id="text_14">
      <!-- 60 -->
      <defs>
       <path d="
M33.0156 40.375
Q26.375 40.375 22.4844 35.8281
Q18.6094 31.2969 18.6094 23.3906
Q18.6094 15.5312 22.4844 10.9531
Q26.375 6.39062 33.0156 6.39062
Q39.6562 6.39062 43.5312 10.9531
Q47.4062 15.5312 47.4062 23.3906
Q47.4062 31.2969 43.5312 35.8281
Q39.6562 40.375 33.0156 40.375
M52.5938 71.2969
L52.5938 62.3125
Q48.875 64.0625 45.0938 64.9844
Q41.3125 65.9219 37.5938 65.9219
Q27.8281 65.9219 22.6719 59.3281
Q17.5312 52.7344 16.7969 39.4062
Q19.6719 43.6562 24.0156 45.9219
Q28.375 48.1875 33.5938 48.1875
Q44.5781 48.1875 50.9531 41.5156
Q57.3281 34.8594 57.3281 23.3906
Q57.3281 12.1562 50.6875 5.35938
Q44.0469 -1.42188 33.0156 -1.42188
Q20.3594 -1.42188 13.6719 8.26562
Q6.98438 17.9688 6.98438 36.375
Q6.98438 53.6562 15.1875 63.9375
Q23.3906 74.2188 37.2031 74.2188
Q40.9219 74.2188 44.7031 73.4844
Q48.4844 72.75 52.5938 71.2969" id="DejaVuSans-36"/>
      </defs>
      <g transform="translate(22.0875 70.5984375)scale(0.1 -0.1)">
       <use xlink:href="#DejaVuSans-36"/>
       <use x="63.623046875" xlink:href="#DejaVuSans-30"/>
      </g>
     </g>
    </g>
    <g id="ytick_8">
     <g id="line2d_45">
      <g>
       <use style="stroke:#000000;stroke-width:0.5;" x="37.45" xlink:href="#m728421d6d4" y="39.9390625"/>
      </g>
     </g>
     <g id="line2d_46">
      <g>
       <use style="stroke:#000000;stroke-width:0.5;" x="372.25" xlink:href="#mcb0005524f" y="39.9390625"/>
      </g>
     </g>
     <g id="text_15">
      <!-- 70 -->
      <defs>
       <path d="
M8.20312 72.9062
L55.0781 72.9062
L55.0781 68.7031
L28.6094 0
L18.3125 0
L43.2188 64.5938
L8.20312 64.5938
z
" id="DejaVuSans-37"/>
      </defs>
      <g transform="translate(22.209375 42.6984375)scale(0.1 -0.1)">
       <use xlink:href="#DejaVuSans-37"/>
       <use x="63.623046875" xlink:href="#DejaVuSans-30"/>
      </g>
     </g>
    </g>
    <g id="ytick_9">
     <g id="line2d_47">
      <g>
       <use style="stroke:#000000;stroke-width:0.5;" x="37.45" xlink:href="#m728421d6d4" y="12.0390625"/>
      </g>
     </g>
     <g id="line2d_48">
      <g>
       <use style="stroke:#000000;stroke-width:0.5;" x="372.25" xlink:href="#mcb0005524f" y="12.0390625"/>
      </g>
     </g>
     <g id="text_16">
      <!-- 80 -->
      <defs>
       <path d="
M31.7812 34.625
Q24.75 34.625 20.7188 30.8594
Q16.7031 27.0938 16.7031 20.5156
Q16.7031 13.9219 20.7188 10.1562
Q24.75 6.39062 31.7812 6.39062
Q38.8125 6.39062 42.8594 10.1719
Q46.9219 13.9688 46.9219 20.5156
Q46.9219 27.0938 42.8906 30.8594
Q38.875 34.625 31.7812 34.625
M21.9219 38.8125
Q15.5781 40.375 12.0312 44.7188
Q8.5 49.0781 8.5 55.3281
Q8.5 64.0625 14.7188 69.1406
Q20.9531 74.2188 31.7812 74.2188
Q42.6719 74.2188 48.875 69.1406
Q55.0781 64.0625 55.0781 55.3281
Q55.0781 49.0781 51.5312 44.7188
Q48 40.375 41.7031 38.8125
Q48.8281 37.1562 52.7969 32.3125
Q56.7812 27.4844 56.7812 20.5156
Q56.7812 9.90625 50.3125 4.23438
Q43.8438 -1.42188 31.7812 -1.42188
Q19.7344 -1.42188 13.25 4.23438
Q6.78125 9.90625 6.78125 20.5156
Q6.78125 27.4844 10.7812 32.3125
Q14.7969 37.1562 21.9219 38.8125
M18.3125 54.3906
Q18.3125 48.7344 21.8438 45.5625
Q25.3906 42.3906 31.7812 42.3906
Q38.1406 42.3906 41.7188 45.5625
Q45.3125 48.7344 45.3125 54.3906
Q45.3125 60.0625 41.7188 63.2344
Q38.1406 66.4062 31.7812 66.4062
Q25.3906 66.4062 21.8438 63.2344
Q18.3125 60.0625 18.3125 54.3906" id="DejaVuSans-38"/>
      </defs>
      <g transform="translate(22.0671875 14.7984375)scale(0.1 -0.1)">
       <use xlink:href="#DejaVuSans-38"/>
       <use x="63.623046875" xlink:href="#DejaVuSans-30"/>
      </g>
     </g>
    </g>
    <g id="text_17">
     <!-- Percentage of Labels -->
     <defs>
      <path d="
M30.6094 48.3906
Q23.3906 48.3906 19.1875 42.75
Q14.9844 37.1094 14.9844 27.2969
Q14.9844 17.4844 19.1562 11.8438
Q23.3438 6.20312 30.6094 6.20312
Q37.7969 6.20312 41.9844 11.8594
Q46.1875 17.5312 46.1875 27.2969
Q46.1875 37.0156 41.9844 42.7031
Q37.7969 48.3906 30.6094 48.3906
M30.6094 56
Q42.3281 56 49.0156 48.375
Q55.7188 40.7656 55.7188 27.2969
Q55.7188 13.875 49.0156 6.21875
Q42.3281 -1.42188 30.6094 -1.42188
Q18.8438 -1.42188 12.1719 6.21875
Q5.51562 13.875 5.51562 27.2969
Q5.51562 40.7656 12.1719 48.375
Q18.8438 56 30.6094 56" id="DejaVuSans-6f"/>
      <path d="
M37.1094 75.9844
L37.1094 68.5
L28.5156 68.5
Q23.6875 68.5 21.7969 66.5469
Q19.9219 64.5938 19.9219 59.5156
L19.9219 54.6875
L34.7188 54.6875
L34.7188 47.7031
L19.9219 47.7031
L19.9219 0
L10.8906 0
L10.8906 47.7031
L2.29688 47.7031
L2.29688 54.6875
L10.8906 54.6875
L10.8906 58.5
Q10.8906 67.625 15.1406 71.7969
Q19.3906 75.9844 28.6094 75.9844
z
" id="DejaVuSans-66"/>
      <path d="
M45.4062 27.9844
Q45.4062 37.75 41.375 43.1094
Q37.3594 48.4844 30.0781 48.4844
Q22.8594 48.4844 18.8281 43.1094
Q14.7969 37.75 14.7969 27.9844
Q14.7969 18.2656 18.8281 12.8906
Q22.8594 7.51562 30.0781 7.51562
Q37.3594 7.51562 41.375 12.8906
Q45.4062 18.2656 45.4062 27.9844
M54.3906 6.78125
Q54.3906 -7.17188 48.1875 -13.9844
Q42 -20.7969 29.2031 -20.7969
Q24.4688 -20.7969 20.2656 -20.0938
Q16.0625 -19.3906 12.1094 -17.9219
L12.1094 -9.1875
Q16.0625 -11.3281 19.9219 -12.3438
Q23.7812 -13.375 27.7812 -13.375
Q36.625 -13.375 41.0156 -8.76562
Q45.4062 -4.15625 45.4062 5.17188
L45.4062 9.625
Q42.625 4.78125 38.2812 2.39062
Q33.9375 0 27.875 0
Q17.8281 0 11.6719 7.65625
Q5.51562 15.3281 5.51562 27.9844
Q5.51562 40.6719 11.6719 48.3281
Q17.8281 56 27.875 56
Q33.9375 56 38.2812 53.6094
Q42.625 51.2188 45.4062 46.3906
L45.4062 54.6875
L54.3906 54.6875
z
" id="DejaVuSans-67"/>
      <path d="
M19.6719 64.7969
L19.6719 37.4062
L32.0781 37.4062
Q38.9688 37.4062 42.7188 40.9688
Q46.4844 44.5312 46.4844 51.125
Q46.4844 57.6719 42.7188 61.2344
Q38.9688 64.7969 32.0781 64.7969
z

M9.8125 72.9062
L32.0781 72.9062
Q44.3438 72.9062 50.6094 67.3594
Q56.8906 61.8125 56.8906 51.125
Q56.8906 40.3281 50.6094 34.8125
Q44.3438 29.2969 32.0781 29.2969
L19.6719 29.2969
L19.6719 0
L9.8125 0
z
" id="DejaVuSans-50"/>
      <path d="
M48.7812 52.5938
L48.7812 44.1875
Q44.9688 46.2969 41.1406 47.3438
Q37.3125 48.3906 33.4062 48.3906
Q24.6562 48.3906 19.8125 42.8438
Q14.9844 37.3125 14.9844 27.2969
Q14.9844 17.2812 19.8125 11.7344
Q24.6562 6.20312 33.4062 6.20312
Q37.3125 6.20312 41.1406 7.25
Q44.9688 8.29688 48.7812 10.4062
L48.7812 2.09375
Q45.0156 0.34375 40.9844 -0.53125
Q36.9688 -1.42188 32.4219 -1.42188
Q20.0625 -1.42188 12.7812 6.34375
Q5.51562 14.1094 5.51562 27.2969
Q5.51562 40.6719 12.8594 48.3281
Q20.2188 56 33.0156 56
Q37.1562 56 41.1094 55.1406
Q45.0625 54.2969 48.7812 52.5938" id="DejaVuSans-63"/>
      <path d="
M41.1094 46.2969
Q39.5938 47.1719 37.8125 47.5781
Q36.0312 48 33.8906 48
Q26.2656 48 22.1875 43.0469
Q18.1094 38.0938 18.1094 28.8125
L18.1094 0
L9.07812 0
L9.07812 54.6875
L18.1094 54.6875
L18.1094 46.1875
Q20.9531 51.1719 25.4844 53.5781
Q30.0312 56 36.5312 56
Q37.4531 56 38.5781 55.875
Q39.7031 55.7656 41.0625 55.5156
z
" id="DejaVuSans-72"/>
     </defs>
     <g transform="translate(14.7984375 175.61015625)rotate(-90.0)scale(0.1 -0.1)">
      <use xlink:href="#DejaVuSans-50"/>
      <use x="56.677734375" xlink:href="#DejaVuSans-65"/>
      <use x="118.201171875" xlink:href="#DejaVuSans-72"/>
      <use x="157.064453125" xlink:href="#DejaVuSans-63"/>
      <use x="212.044921875" xlink:href="#DejaVuSans-65"/>
      <use x="273.568359375" xlink:href="#DejaVuSans-6e"/>
      <use x="336.947265625" xlink:href="#DejaVuSans-74"/>
      <use x="376.15625" xlink:href="#DejaVuSans-61"/>
      <use x="437.435546875" xlink:href="#DejaVuSans-67"/>
      <use x="500.912109375" xlink:href="#DejaVuSans-65"/>
      <use x="562.435546875" xlink:href="#DejaVuSans-20"/>
      <use x="594.22265625" xlink:href="#DejaVuSans-6f"/>
      <use x="655.404296875" xlink:href="#DejaVuSans-66"/>
      <use x="690.609375" xlink:href="#DejaVuSans-20"/>
      <use x="722.396484375" xlink:href="#DejaVuSans-4c"/>
      <use x="778.109375" xlink:href="#DejaVuSans-61"/>
      <use x="839.388671875" xlink:href="#DejaVuSans-62"/>
      <use x="902.865234375" xlink:href="#DejaVuSans-65"/>
      <use x="964.388671875" xlink:href="#DejaVuSans-6c"/>
      <use x="992.171875" xlink:href="#DejaVuSans-73"/>
     </g>
    </g>
   </g>
   <g id="legend_1">
    <g id="patch_169">
     <path d="
M388.99 206.223
L580.761 206.223
L580.761 28.4212
L388.99 28.4212
z
" style="fill:#ffffff;stroke:#000000;stroke-linejoin:miter;"/>
    </g>
    <g id="text_18">
     <!-- Subject -->
     <defs>
      <path d="
M53.5156 70.5156
L53.5156 60.8906
Q47.9062 63.5781 42.9219 64.8906
Q37.9375 66.2188 33.2969 66.2188
Q25.25 66.2188 20.875 63.0938
Q16.5 59.9688 16.5 54.2031
Q16.5 49.3594 19.4062 46.8906
Q22.3125 44.4375 30.4219 42.9219
L36.375 41.7031
Q47.4062 39.5938 52.6562 34.2969
Q57.9062 29 57.9062 20.125
Q57.9062 9.51562 50.7969 4.04688
Q43.7031 -1.42188 29.9844 -1.42188
Q24.8125 -1.42188 18.9688 -0.25
Q13.1406 0.921875 6.89062 3.21875
L6.89062 13.375
Q12.8906 10.0156 18.6562 8.29688
Q24.4219 6.59375 29.9844 6.59375
Q38.4219 6.59375 43.0156 9.90625
Q47.6094 13.2344 47.6094 19.3906
Q47.6094 24.75 44.3125 27.7812
Q41.0156 30.8125 33.5 32.3281
L27.4844 33.5
Q16.4531 35.6875 11.5156 40.375
Q6.59375 45.0625 6.59375 53.4219
Q6.59375 63.0938 13.4062 68.6562
Q20.2188 74.2188 32.1719 74.2188
Q37.3125 74.2188 42.625 73.2812
Q47.9531 72.3594 53.5156 70.5156" id="DejaVuSans-53"/>
      <path d="
M9.42188 54.6875
L18.4062 54.6875
L18.4062 -0.984375
Q18.4062 -11.4219 14.4219 -16.1094
Q10.4531 -20.7969 1.60938 -20.7969
L-1.8125 -20.7969
L-1.8125 -13.1875
L0.59375 -13.1875
Q5.71875 -13.1875 7.5625 -10.8125
Q9.42188 -8.45312 9.42188 -0.984375
z

M9.42188 75.9844
L18.4062 75.9844
L18.4062 64.5938
L9.42188 64.5938
z
" id="DejaVuSans-6a"/>
     </defs>
     <g transform="translate(466.63265625 40.819625)scale(0.1 -0.1)">
      <use xlink:href="#DejaVuSans-53"/>
      <use x="63.4765625" xlink:href="#DejaVuSans-75"/>
      <use x="126.85546875" xlink:href="#DejaVuSans-62"/>
      <use x="190.33203125" xlink:href="#DejaVuSans-6a"/>
      <use x="218.115234375" xlink:href="#DejaVuSans-65"/>
      <use x="279.638671875" xlink:href="#DejaVuSans-63"/>
      <use x="334.619140625" xlink:href="#DejaVuSans-74"/>
     </g>
    </g>
    <g id="patch_170">
     <path d="
M393.79 58.0174
L417.79 58.0174
L417.79 49.6174
L393.79 49.6174
z
" style="fill:#8000ff;opacity:0.5;stroke:#000000;stroke-linejoin:miter;"/>
    </g>
    <g id="text_19">
     <!-- 0 -->
     <g transform="translate(427.39 58.0174375)scale(0.12 -0.12)">
      <use xlink:href="#DejaVuSans-30"/>
     </g>
    </g>
    <g id="patch_171">
     <path d="
M393.79 75.6312
L417.79 75.6312
L417.79 67.2312
L393.79 67.2312
z
" style="fill:#6e1cff;opacity:0.5;stroke:#000000;stroke-linejoin:miter;"/>
    </g>
    <g id="text_20">
     <!-- 1 -->
     <g transform="translate(427.39 75.6311875)scale(0.12 -0.12)">
      <use xlink:href="#DejaVuSans-31"/>
     </g>
    </g>
    <g id="patch_172">
     <path d="
M393.79 93.2449
L417.79 93.2449
L417.79 84.8449
L393.79 84.8449
z
" style="fill:#5a3bfd;opacity:0.5;stroke:#000000;stroke-linejoin:miter;"/>
    </g>
    <g id="text_21">
     <!-- 2 -->
     <g transform="translate(427.39 93.2449375)scale(0.12 -0.12)">
      <use xlink:href="#DejaVuSans-32"/>
     </g>
    </g>
    <g id="patch_173">
     <path d="
M393.79 110.859
L417.79 110.859
L417.79 102.459
L393.79 102.459
z
" style="fill:#4659fb;opacity:0.5;stroke:#000000;stroke-linejoin:miter;"/>
    </g>
    <g id="text_22">
     <!-- 3 -->
     <g transform="translate(427.39 110.8586875)scale(0.12 -0.12)">
      <use xlink:href="#DejaVuSans-33"/>
     </g>
    </g>
    <g id="patch_174">
     <path d="
M393.79 128.472
L417.79 128.472
L417.79 120.072
L393.79 120.072
z
" style="fill:#3176f8;opacity:0.5;stroke:#000000;stroke-linejoin:miter;"/>
    </g>
    <g id="text_23">
     <!-- 4 -->
     <g transform="translate(427.39 128.4724375)scale(0.12 -0.12)">
      <use xlink:href="#DejaVuSans-34"/>
     </g>
    </g>
    <g id="patch_175">
     <path d="
M393.79 146.086
L417.79 146.086
L417.79 137.686
L393.79 137.686
z
" style="fill:#1e91f3;opacity:0.5;stroke:#000000;stroke-linejoin:miter;"/>
    </g>
    <g id="text_24">
     <!-- 5 -->
     <g transform="translate(427.39 146.0861875)scale(0.12 -0.12)">
      <use xlink:href="#DejaVuSans-35"/>
     </g>
    </g>
    <g id="patch_176">
     <path d="
M393.79 163.7
L417.79 163.7
L417.79 155.3
L393.79 155.3
z
" style="fill:#09a9ee;opacity:0.5;stroke:#000000;stroke-linejoin:miter;"/>
    </g>
    <g id="text_25">
     <!-- 6 -->
     <g transform="translate(427.39 163.6999375)scale(0.12 -0.12)">
      <use xlink:href="#DejaVuSans-36"/>
     </g>
    </g>
    <g id="patch_177">
     <path d="
M393.79 181.314
L417.79 181.314
L417.79 172.914
L393.79 172.914
z
" style="fill:#08bee9;opacity:0.5;stroke:#000000;stroke-linejoin:miter;"/>
    </g>
    <g id="text_26">
     <!-- 7 -->
     <g transform="translate(427.39 181.3136875)scale(0.12 -0.12)">
      <use xlink:href="#DejaVuSans-37"/>
     </g>
    </g>
    <g id="patch_178">
     <path d="
M393.79 198.927
L417.79 198.927
L417.79 190.527
L393.79 190.527
z
" style="fill:#1dd1e2;opacity:0.5;stroke:#000000;stroke-linejoin:miter;"/>
    </g>
    <g id="text_27">
     <!-- 8 -->
     <g transform="translate(427.39 198.9274375)scale(0.12 -0.12)">
      <use xlink:href="#DejaVuSans-38"/>
     </g>
    </g>
    <g id="patch_179">
     <path d="
M457.765 58.0174
L481.765 58.0174
L481.765 49.6174
L457.765 49.6174
z
" style="fill:#30e1da;opacity:0.5;stroke:#000000;stroke-linejoin:miter;"/>
    </g>
    <g id="text_28">
     <!-- 9 -->
     <defs>
      <path d="
M10.9844 1.51562
L10.9844 10.5
Q14.7031 8.73438 18.5 7.8125
Q22.3125 6.89062 25.9844 6.89062
Q35.75 6.89062 40.8906 13.4531
Q46.0469 20.0156 46.7812 33.4062
Q43.9531 29.2031 39.5938 26.9531
Q35.25 24.7031 29.9844 24.7031
Q19.0469 24.7031 12.6719 31.3125
Q6.29688 37.9375 6.29688 49.4219
Q6.29688 60.6406 12.9375 67.4219
Q19.5781 74.2188 30.6094 74.2188
Q43.2656 74.2188 49.9219 64.5156
Q56.5938 54.8281 56.5938 36.375
Q56.5938 19.1406 48.4062 8.85938
Q40.2344 -1.42188 26.4219 -1.42188
Q22.7031 -1.42188 18.8906 -0.6875
Q15.0938 0.046875 10.9844 1.51562
M30.6094 32.4219
Q37.25 32.4219 41.125 36.9531
Q45.0156 41.5 45.0156 49.4219
Q45.0156 57.2812 41.125 61.8438
Q37.25 66.4062 30.6094 66.4062
Q23.9688 66.4062 20.0938 61.8438
Q16.2188 57.2812 16.2188 49.4219
Q16.2188 41.5 20.0938 36.9531
Q23.9688 32.4219 30.6094 32.4219" id="DejaVuSans-39"/>
     </defs>
     <g transform="translate(491.365 58.0174375)scale(0.12 -0.12)">
      <use xlink:href="#DejaVuSans-39"/>
     </g>
    </g>
    <g id="patch_180">
     <path d="
M457.765 75.6312
L481.765 75.6312
L481.765 67.2312
L457.765 67.2312
z
" style="fill:#44eed2;opacity:0.5;stroke:#000000;stroke-linejoin:miter;"/>
    </g>
    <g id="text_29">
     <!-- 10 -->
     <g transform="translate(491.365 75.6311875)scale(0.12 -0.12)">
      <use xlink:href="#DejaVuSans-31"/>
      <use x="63.623046875" xlink:href="#DejaVuSans-30"/>
     </g>
    </g>
    <g id="patch_181">
     <path d="
M457.765 93.2449
L481.765 93.2449
L481.765 84.8449
L457.765 84.8449
z
" style="fill:#58f8c9;opacity:0.5;stroke:#000000;stroke-linejoin:miter;"/>
    </g>
    <g id="text_30">
     <!-- 11 -->
     <g transform="translate(491.365 93.2449375)scale(0.12 -0.12)">
      <use xlink:href="#DejaVuSans-31"/>
      <use x="63.623046875" xlink:href="#DejaVuSans-31"/>
     </g>
    </g>
    <g id="patch_182">
     <path d="
M457.765 110.859
L481.765 110.859
L481.765 102.459
L457.765 102.459
z
" style="fill:#6dfdbf;opacity:0.5;stroke:#000000;stroke-linejoin:miter;"/>
    </g>
    <g id="text_31">
     <!-- 12 -->
     <g transform="translate(491.365 110.8586875)scale(0.12 -0.12)">
      <use xlink:href="#DejaVuSans-31"/>
      <use x="63.623046875" xlink:href="#DejaVuSans-32"/>
     </g>
    </g>
    <g id="patch_183">
     <path d="
M457.765 128.472
L481.765 128.472
L481.765 120.072
L457.765 120.072
z
" style="fill:#80ffb4;opacity:0.5;stroke:#000000;stroke-linejoin:miter;"/>
    </g>
    <g id="text_32">
     <!-- 13 -->
     <g transform="translate(491.365 128.4724375)scale(0.12 -0.12)">
      <use xlink:href="#DejaVuSans-31"/>
      <use x="63.623046875" xlink:href="#DejaVuSans-33"/>
     </g>
    </g>
    <g id="patch_184">
     <path d="
M457.765 146.086
L481.765 146.086
L481.765 137.686
L457.765 137.686
z
" style="fill:#92fda9;opacity:0.5;stroke:#000000;stroke-linejoin:miter;"/>
    </g>
    <g id="text_33">
     <!-- 14 -->
     <g transform="translate(491.365 146.0861875)scale(0.12 -0.12)">
      <use xlink:href="#DejaVuSans-31"/>
      <use x="63.623046875" xlink:href="#DejaVuSans-34"/>
     </g>
    </g>
    <g id="patch_185">
     <path d="
M457.765 163.7
L481.765 163.7
L481.765 155.3
L457.765 155.3
z
" style="fill:#a6f89d;opacity:0.5;stroke:#000000;stroke-linejoin:miter;"/>
    </g>
    <g id="text_34">
     <!-- 15 -->
     <g transform="translate(491.365 163.6999375)scale(0.12 -0.12)">
      <use xlink:href="#DejaVuSans-31"/>
      <use x="63.623046875" xlink:href="#DejaVuSans-35"/>
     </g>
    </g>
    <g id="patch_186">
     <path d="
M457.765 181.314
L481.765 181.314
L481.765 172.914
L457.765 172.914
z
" style="fill:#bbee91;opacity:0.5;stroke:#000000;stroke-linejoin:miter;"/>
    </g>
    <g id="text_35">
     <!-- 16 -->
     <g transform="translate(491.365 181.3136875)scale(0.12 -0.12)">
      <use xlink:href="#DejaVuSans-31"/>
      <use x="63.623046875" xlink:href="#DejaVuSans-36"/>
     </g>
    </g>
    <g id="patch_187">
     <path d="
M457.765 198.927
L481.765 198.927
L481.765 190.527
L457.765 190.527
z
" style="fill:#cee184;opacity:0.5;stroke:#000000;stroke-linejoin:miter;"/>
    </g>
    <g id="text_36">
     <!-- 17 -->
     <g transform="translate(491.365 198.9274375)scale(0.12 -0.12)">
      <use xlink:href="#DejaVuSans-31"/>
      <use x="63.623046875" xlink:href="#DejaVuSans-37"/>
     </g>
    </g>
    <g id="patch_188">
     <path d="
M528.644 58.0174
L552.644 58.0174
L552.644 49.6174
L528.644 49.6174
z
" style="fill:#e2d176;opacity:0.5;stroke:#000000;stroke-linejoin:miter;"/>
    </g>
    <g id="text_37">
     <!-- 18 -->
     <g transform="translate(562.24375 58.0174375)scale(0.12 -0.12)">
      <use xlink:href="#DejaVuSans-31"/>
      <use x="63.623046875" xlink:href="#DejaVuSans-38"/>
     </g>
    </g>
    <g id="patch_189">
     <path d="
M528.644 75.6312
L552.644 75.6312
L552.644 67.2312
L528.644 67.2312
z
" style="fill:#f6be68;opacity:0.5;stroke:#000000;stroke-linejoin:miter;"/>
    </g>
    <g id="text_38">
     <!-- 19 -->
     <g transform="translate(562.24375 75.6311875)scale(0.12 -0.12)">
      <use xlink:href="#DejaVuSans-31"/>
      <use x="63.623046875" xlink:href="#DejaVuSans-39"/>
     </g>
    </g>
    <g id="patch_190">
     <path d="
M528.644 93.2449
L552.644 93.2449
L552.644 84.8449
L528.644 84.8449
z
" style="fill:#ffa95b;opacity:0.5;stroke:#000000;stroke-linejoin:miter;"/>
    </g>
    <g id="text_39">
     <!-- 20 -->
     <g transform="translate(562.24375 93.2449375)scale(0.12 -0.12)">
      <use xlink:href="#DejaVuSans-32"/>
      <use x="63.623046875" xlink:href="#DejaVuSans-30"/>
     </g>
    </g>
    <g id="patch_191">
     <path d="
M528.644 110.859
L552.644 110.859
L552.644 102.459
L528.644 102.459
z
" style="fill:#ff914c;opacity:0.5;stroke:#000000;stroke-linejoin:miter;"/>
    </g>
    <g id="text_40">
     <!-- 21 -->
     <g transform="translate(562.24375 110.8586875)scale(0.12 -0.12)">
      <use xlink:href="#DejaVuSans-32"/>
      <use x="63.623046875" xlink:href="#DejaVuSans-31"/>
     </g>
    </g>
    <g id="patch_192">
     <path d="
M528.644 128.472
L552.644 128.472
L552.644 120.072
L528.644 120.072
z
" style="fill:#ff763d;opacity:0.5;stroke:#000000;stroke-linejoin:miter;"/>
    </g>
    <g id="text_41">
     <!-- 22 -->
     <g transform="translate(562.24375 128.4724375)scale(0.12 -0.12)">
      <use xlink:href="#DejaVuSans-32"/>
      <use x="63.623046875" xlink:href="#DejaVuSans-32"/>
     </g>
    </g>
    <g id="patch_193">
     <path d="
M528.644 146.086
L552.644 146.086
L552.644 137.686
L528.644 137.686
z
" style="fill:#ff592d;opacity:0.5;stroke:#000000;stroke-linejoin:miter;"/>
    </g>
    <g id="text_42">
     <!-- 23 -->
     <g transform="translate(562.24375 146.0861875)scale(0.12 -0.12)">
      <use xlink:href="#DejaVuSans-32"/>
      <use x="63.623046875" xlink:href="#DejaVuSans-33"/>
     </g>
    </g>
    <g id="patch_194">
     <path d="
M528.644 163.7
L552.644 163.7
L552.644 155.3
L528.644 155.3
z
" style="fill:#ff3b1e;opacity:0.5;stroke:#000000;stroke-linejoin:miter;"/>
    </g>
    <g id="text_43">
     <!-- 24 -->
     <g transform="translate(562.24375 163.6999375)scale(0.12 -0.12)">
      <use xlink:href="#DejaVuSans-32"/>
      <use x="63.623046875" xlink:href="#DejaVuSans-34"/>
     </g>
    </g>
    <g id="patch_195">
     <path d="
M528.644 181.314
L552.644 181.314
L552.644 172.914
L528.644 172.914
z
" style="fill:#ff1c0e;opacity:0.5;stroke:#000000;stroke-linejoin:miter;"/>
    </g>
    <g id="text_44">
     <!-- 25 -->
     <g transform="translate(562.24375 181.3136875)scale(0.12 -0.12)">
      <use xlink:href="#DejaVuSans-32"/>
      <use x="63.623046875" xlink:href="#DejaVuSans-35"/>
     </g>
    </g>
    <g id="patch_196">
     <path d="
M528.644 198.927
L552.644 198.927
L552.644 190.527
L528.644 190.527
z
" style="fill:#ff0000;opacity:0.5;stroke:#000000;stroke-linejoin:miter;"/>
    </g>
    <g id="text_45">
     <!-- 26 -->
     <g transform="translate(562.24375 198.9274375)scale(0.12 -0.12)">
      <use xlink:href="#DejaVuSans-32"/>
      <use x="63.623046875" xlink:href="#DejaVuSans-36"/>
     </g>
    </g>
   </g>
  </g>
 </g>
 <defs>
  <clipPath id="pbcd484661a">
   <rect height="223.2" width="334.8" x="37.45" y="12.0390625"/>
  </clipPath>
 </defs>
</svg>
